<?xml version="1.0" standalone="no"?>
<!DOCTYPE svg PUBLIC "-//W3C//DTD SVG 20010904//EN"
 "http://www.w3.org/TR/2001/REC-SVG-20010904/DTD/svg10.dtd">
<svg version="1.0" xmlns="http://www.w3.org/2000/svg"
 width="859.000000pt" height="859.000000pt" viewBox="0 0 859.000000 859.000000"
 preserveAspectRatio="xMidYMid meet">
<metadata>
Created by potrace 1.14, written by Peter Selinger 2001-2017
</metadata>
<g transform="translate(0.000000,859.000000) scale(0.100000,-0.100000)"
fill="#000000" stroke="none">
<path d="M855 6054 c-61 -15 -121 -46 -167 -88 -29 -26 -92 -145 -102 -194 -8
-35 -9 -130 -2 -214 16 -195 190 -612 364 -873 37 -56 37 -55 8 -236 -8 -53
-12 -105 -9 -117 l5 -22 -441 0 -441 0 0 -50 0 -50 441 0 c291 0 438 -3 434
-10 -3 -5 -1 -10 5 -10 7 0 9 8 5 20 -3 11 -2 20 4 20 5 0 12 -10 14 -22 3
-16 4 -14 2 5 -1 15 2 27 7 27 4 0 8 5 8 12 0 9 -3 9 -12 0 -7 -7 -19 -12 -28
-12 -13 0 -13 1 0 10 10 6 11 10 3 10 -7 0 -13 9 -13 20 0 11 4 20 8 20 14 0
32 48 32 83 0 18 5 38 12 45 9 9 9 15 -1 24 -11 11 -12 10 -7 0 4 -7 3 -18 -2
-25 -6 -7 -13 -28 -15 -47 -2 -19 -3 -6 0 30 5 83 13 130 23 130 13 0 22 -133
10 -170 -12 -43 -12 -43 0 -35 7 4 8 -3 4 -22 -4 -15 -3 -25 1 -21 4 4 9 40
11 80 3 73 21 158 33 158 3 0 13 -12 22 -28 9 -15 65 -90 124 -167 134 -173
139 -183 144 -264 1 -19 3 -21 16 -11 13 11 13 14 0 27 -17 17 -20 33 -5 33 6
0 10 -6 10 -14 0 -8 7 -17 16 -20 8 -3 12 -10 9 -16 -3 -5 -1 -18 5 -27 11
-17 11 -17 6 0 -4 12 -2 17 6 15 7 -3 14 -21 16 -40 2 -29 8 -37 27 -40 14 -3
22 -1 19 3 -3 5 -12 9 -20 9 -8 0 -14 8 -14 17 0 14 4 12 25 -7 17 -16 23 -30
19 -44 -4 -15 -3 -17 4 -7 11 16 36 5 29 -13 -3 -6 1 -20 9 -30 7 -11 11 -24
7 -30 -3 -6 0 -6 7 1 11 10 11 15 0 28 -7 8 -10 18 -6 22 3 4 77 -63 164 -148
229 -225 427 -400 583 -515 14 -10 50 -37 80 -60 61 -46 275 -189 370 -248 39
-24 58 -41 49 -43 -8 -3 -22 -7 -30 -10 -18 -7 -25 -9 -123 -24 -42 -6 -80
-16 -83 -21 -4 -6 1 -8 13 -4 11 4 42 8 69 11 27 3 64 8 83 11 26 5 32 4 26
-6 -6 -9 -4 -11 5 -5 18 11 111 12 100 1 -4 -4 -29 -10 -55 -11 -25 -2 -52 -8
-59 -14 -10 -8 -23 -7 -48 4 -20 8 -39 11 -42 7 -4 -3 10 -11 31 -17 37 -11
37 -11 -43 -19 -78 -7 -138 -1 -130 13 2 3 -1 13 -7 22 -17 22 -87 20 -87 -3
0 -9 4 -20 10 -23 5 -3 7 0 4 8 -7 20 45 29 63 12 10 -11 10 -15 1 -21 -6 -4
-14 -2 -16 4 -5 17 -19 15 -19 -3 0 -10 11 -14 34 -13 18 1 36 -2 39 -5 4 -3
-30 -6 -75 -5 -44 0 -81 3 -81 7 0 3 -35 6 -78 7 -88 0 -184 23 -155 36 10 5
5 5 -12 1 -16 -3 -46 -6 -65 -5 -31 1 -32 0 -12 -8 13 -6 51 -15 85 -21 213
-37 455 -34 622 8 33 8 78 19 100 25 38 10 47 7 180 -59 137 -67 300 -134 420
-172 138 -43 217 -56 355 -55 153 0 200 12 286 72 57 40 121 123 109 143 -5 7
-4 10 2 6 14 -9 25 51 17 92 -5 24 -9 29 -16 19 -7 -9 -8 -7 -2 7 4 11 6 42 5
70 -1 27 1 46 6 41 7 -7 11 -37 13 -111 1 -27 2 -28 10 -8 9 23 7 61 -10 158
-5 33 -10 61 -10 63 0 2 -4 1 -9 -2 -4 -3 -6 6 -3 19 12 64 -155 397 -311 622
-48 69 -51 72 -64 52 -13 -18 -9 -29 48 -121 75 -123 177 -327 212 -424 56
-157 72 -325 41 -419 -22 -64 -82 -121 -147 -140 -64 -19 -201 -19 -289 -1
-500 107 -1254 616 -1933 1308 l-190 193 84 3 c75 3 86 1 107 -19 13 -12 27
-20 30 -16 4 4 -1 9 -10 13 -9 3 -13 10 -10 15 3 5 282 9 670 9 608 -1 665 -2
671 -17 6 -15 7 -14 14 3 6 15 8 12 8 -14 1 -18 -3 -31 -8 -28 -4 3 -6 -5 -4
-18 3 -13 -7 -60 -21 -106 -15 -46 -25 -85 -22 -87 11 -12 73 223 67 255 -1 9
32 12 139 12 126 0 140 -2 141 -17 0 -16 2 -15 9 2 7 15 8 12 5 -15 -2 -19 -7
-64 -10 -100 -3 -36 -11 -72 -16 -80 -8 -11 -9 -7 -5 15 7 35 17 167 12 145
-2 -8 -10 -49 -16 -90 -14 -90 -48 -194 -90 -274 -17 -33 -28 -66 -25 -76 3
-10 1 -21 -5 -25 -5 -3 -10 1 -10 11 0 9 -22 -13 -50 -50 -29 -39 -47 -72 -44
-81 4 -8 1 -15 -5 -15 -6 0 -11 5 -11 11 0 6 -8 3 -17 -7 -10 -10 -18 -27 -18
-37 0 -11 -7 -22 -15 -25 -13 -5 -13 -3 -1 11 24 30 0 18 -43 -20 -22 -21 -41
-44 -41 -52 0 -8 -6 -16 -14 -19 -10 -3 -12 0 -8 12 5 13 -1 11 -26 -7 -48
-36 -147 -89 -192 -103 l-40 -12 27 -12 c23 -11 33 -9 85 15 32 15 73 38 91
50 27 19 30 24 16 27 -14 2 -12 6 10 16 25 11 28 11 22 -3 -7 -19 71 39 137
102 191 183 302 418 320 681 2 22 4 22 135 22 123 0 132 -1 124 -17 -5 -10
-13 -49 -17 -88 -7 -77 -33 -201 -46 -226 -6 -13 0 -18 30 -28 50 -15 55 -14
37 5 -9 8 -21 12 -27 8 -18 -11 -28 16 -17 47 6 17 15 26 21 23 9 -5 9 -3 0 6
-8 8 -9 20 -3 36 5 13 12 64 16 113 5 64 11 92 21 95 8 3 11 10 8 16 -3 5 -4
10 0 10 3 0 10 -10 15 -22 7 -20 9 -20 9 -4 1 15 4 16 16 6 12 -10 16 -9 21 4
10 25 24 19 24 -11 l1 -28 14 30 c13 30 13 30 15 5 1 -14 4 -19 7 -12 2 6 11
12 19 12 9 0 12 5 9 10 -4 7 590 10 1774 10 l1781 0 0 50 0 50 -1778 0 -1779
0 4 33 c4 26 2 29 -7 17 -10 -12 -11 -11 -7 8 3 12 1 20 -4 16 -5 -3 -9 -11
-9 -17 0 -7 -7 -21 -15 -31 -14 -18 -15 -17 -15 23 0 29 4 40 12 35 7 -4 8 -3
4 5 -4 6 -12 8 -18 5 -7 -4 -8 8 -5 37 3 24 3 35 0 24 -3 -11 -9 -25 -15 -32
-6 -8 -6 -19 1 -32 6 -11 11 -36 11 -57 0 -33 -2 -36 -22 -30 -13 3 -29 6 -35
6 -7 0 -13 8 -14 18 0 13 -2 12 -9 -5 -9 -22 -14 -23 -150 -23 l-140 0 1 33
c2 47 -10 120 -23 132 -7 7 -9 3 -5 -15 3 -14 9 -53 13 -88 l7 -63 -148 3
-148 3 -17 87 c-10 47 -23 94 -29 105 -14 25 -14 15 3 -43 19 -64 31 -154 18
-135 -8 11 -10 11 -14 0 -4 -12 -120 -14 -691 -14 -377 0 -688 3 -692 6 -8 9
-8 38 0 69 l6 25 -15 -25 c-8 -14 -12 -37 -9 -52 l6 -28 -121 0 -120 0 -44 53
c-427 505 -683 953 -718 1253 -12 113 -4 174 34 237 124 206 531 137 1084
-183 71 -41 70 -44 -15 -80 -29 -12 -53 -26 -53 -31 0 -14 18 -11 23 4 2 6 8
8 13 4 5 -5 1 -14 -9 -22 -13 -10 -15 -14 -5 -18 10 -3 10 -8 2 -17 -9 -9 -16
-6 -29 12 l-17 23 6 -28 c4 -17 3 -26 -3 -23 -10 7 -61 -17 -71 -34 -8 -12
-40 -3 -40 12 0 6 7 8 14 5 11 -4 13 -1 9 10 -5 13 -1 15 21 11 21 -4 26 -2
22 9 -4 10 -1 13 12 9 13 -4 18 0 19 14 2 19 0 19 -42 -4 -141 -79 -297 -211
-392 -333 -35 -44 -39 -53 -22 -53 5 0 8 4 5 8 -3 5 4 15 15 22 10 8 19 18 19
23 0 18 150 158 162 151 7 -4 8 -3 4 4 -4 7 -2 12 4 12 6 0 8 5 5 10 -3 6 0
11 7 11 7 1 20 2 28 3 8 0 14 9 14 19 -1 9 2 17 8 17 5 0 18 9 30 19 19 19 22
19 43 3 19 -14 20 -18 7 -28 -8 -6 -26 -9 -41 -7 -22 3 -23 2 -6 -5 18 -8 18
-10 -7 -26 -15 -10 -33 -14 -39 -10 -8 5 -9 3 -5 -5 5 -7 0 -18 -10 -26 -11
-8 -14 -15 -8 -15 6 0 22 10 35 21 39 35 159 113 234 153 85 46 88 48 45 40
-24 -5 -31 -4 -26 5 4 6 13 8 19 5 7 -4 9 -4 5 0 -13 15 63 73 81 62 5 -3 11
3 14 14 3 11 13 20 22 20 9 0 13 -4 10 -10 -3 -5 -1 -10 4 -10 6 0 11 6 11 13
0 8 4 7 10 -3 6 -10 10 -11 10 -2 0 6 9 12 21 12 11 0 18 4 14 9 -3 5 0 11 7
14 7 2 2 2 -12 0 -14 -3 -27 -8 -30 -12 -9 -12 -24 -6 -95 40 -339 220 -602
338 -820 368 -96 14 -125 13 -200 -5z m-218 -247 c1 -26 0 -28 -7 -12 -11 26
-12 45 -2 45 4 0 8 -15 9 -33z m-22 -27 c-3 -5 1 -10 9 -10 10 0 13 -7 10 -22
-3 -13 -6 -63 -9 -113 -4 -105 -25 -132 -23 -30 1 47 -3 70 -13 77 -11 8 -10
9 4 4 20 -6 23 14 5 33 -10 11 -10 13 0 7 8 -5 12 0 12 14 0 13 -4 19 -11 14
-8 -4 -8 0 0 15 7 11 14 21 17 21 3 0 2 -4 -1 -10z m1202 -206 c-3 -3 -12 -4
-19 -1 -8 3 -5 6 6 6 11 1 17 -2 13 -5z m-1187 -110 c0 -8 -4 -12 -10 -9 -5 3
-10 13 -10 21 0 8 5 12 10 9 6 -3 10 -13 10 -21z m1100 22 c0 -2 -7 -7 -16
-10 -8 -3 -12 -2 -9 4 6 10 25 14 25 6z m-103 -36 c14 -11 21 -20 15 -20 -12
0 -60 39 -49 40 5 0 20 -9 34 -20z m-987 -38 c0 -15 -2 -15 -10 -2 -13 20 -13
33 0 25 6 -3 10 -14 10 -23z m390 -874 c0 -15 -20 -8 -30 11 -17 33 -11 47 10
21 11 -14 20 -28 20 -32z m-13 -55 c-3 -10 -5 -4 -5 12 0 17 2 24 5 18 2 -7 2
-21 0 -30z m2368 -542 c-4 -17 -10 -33 -14 -36 -5 -2 -3 13 2 35 13 46 22 46
12 1z m-29 -77 c-4 -9 -9 -15 -11 -12 -3 3 -3 13 1 22 4 9 9 15 11 12 3 -3 3
-13 -1 -22z m-26 -59 c0 -13 -35 -75 -43 -75 -5 0 -7 3 -5 8 3 4 11 22 18 40
12 27 30 44 30 27z m-70 -125 c0 -5 -4 -10 -9 -10 -5 0 -11 -9 -14 -20 -3 -11
-10 -20 -16 -20 -5 0 -3 13 7 30 17 30 32 39 32 20z m-70 -85 c-7 -9 -15 -13
-17 -11 -6 6 20 36 26 30 2 -2 -2 -10 -9 -19z m-40 -45 c0 -5 -5 -10 -11 -10
-5 0 -7 5 -4 10 3 6 8 10 11 10 2 0 4 -4 4 -10z m-85 -80 c-16 -11 -34 -20
-40 -20 -12 0 46 38 60 39 6 1 -3 -8 -20 -19z m-125 -85 c0 -6 -62 -45 -72
-45 -5 0 -8 5 -8 10 0 6 8 10 19 10 10 0 24 7 31 15 12 14 30 20 30 10z m-125
-75 c-27 -12 -43 -12 -25 0 8 5 22 9 30 9 10 0 8 -3 -5 -9z m1352 -262 c-3 -8
-6 -5 -6 6 -1 11 2 17 5 13 3 -3 4 -12 1 -19z m10 -70 c-3 -7 -5 -2 -5 12 0
14 2 19 5 13 2 -7 2 -19 0 -25z m-1372 -88 c19 -8 19 -9 -2 -9 -12 -1 -25 4
-28 9 -7 12 2 12 30 0z m1392 -52 c-3 -8 -6 -5 -6 6 -1 11 2 17 5 13 3 -3 4
-12 1 -19z"/>
<path d="M2325 5719 c-26 -6 -23 -7 20 -9 28 -2 70 -2 95 -1 36 1 41 -1 25 -9
-19 -9 -19 -10 -1 -7 11 1 20 9 21 17 2 12 -11 15 -64 15 -36 0 -79 -3 -96 -6z"/>
<path d="M2243 5713 c9 -2 23 -2 30 0 6 3 -1 5 -18 5 -16 0 -22 -2 -12 -5z"/>
<path d="M2513 5705 c0 -9 9 -15 23 -15 12 0 24 7 28 15 4 11 -2 15 -23 15
-18 0 -28 -5 -28 -15z"/>
<path d="M2105 5690 c-33 -10 -51 -19 -39 -19 11 -1 25 -6 32 -13 8 -8 12 -9
12 -1 0 6 -6 13 -12 16 -7 2 10 8 37 12 28 4 57 11 65 16 27 15 -31 9 -95 -11z"/>
<path d="M2620 5700 c0 -4 10 -8 23 -8 12 -1 38 -3 57 -7 30 -4 32 -4 12 5
-32 14 -92 20 -92 10z"/>
<path d="M2224 5693 c7 -7 77 -5 85 2 2 3 -17 5 -44 5 -27 0 -45 -3 -41 -7z"/>
<path d="M2150 5670 l-25 -8 25 0 c14 0 39 4 55 8 l30 8 -30 0 c-16 0 -41 -4
-55 -8z"/>
<path d="M2310 5671 c41 -6 37 -7 -45 -15 -49 -4 -102 -8 -117 -8 -16 -1 -28
-5 -28 -9 0 -15 -28 -10 -34 6 -3 8 -16 15 -28 14 -15 0 -18 -3 -8 -6 8 -4 21
-12 28 -20 17 -16 30 -16 117 2 90 19 266 21 376 5 67 -10 90 -10 105 -1 17
11 16 12 -9 6 -22 -4 -27 -3 -21 7 6 10 5 11 -7 1 -11 -9 -25 -10 -50 -3 -18
6 -55 10 -81 10 -27 0 -48 3 -48 8 0 4 -44 8 -98 8 -63 1 -82 -1 -52 -5z"/>
<path d="M2513 5673 c9 -2 25 -2 35 0 9 3 1 5 -18 5 -19 0 -27 -2 -17 -5z"/>
<path d="M2755 5671 l20 -9 -20 -4 c-11 -3 0 -3 25 -1 34 2 40 1 25 -6 -17 -8
-18 -10 -2 -10 9 -1 17 -5 17 -10 0 -5 14 -4 30 2 l31 12 -48 17 c-50 17 -119
25 -78 9z"/>
<path d="M2678 5663 c6 -2 18 -2 25 0 6 3 1 5 -13 5 -14 0 -19 -2 -12 -5z"/>
<path d="M2695 5631 c-15 -6 -9 -10 29 -15 27 -4 56 -10 65 -13 13 -4 13 -3 2
5 -11 8 -11 10 0 15 8 3 -3 3 -23 0 -25 -4 -38 -2 -38 6 0 13 -7 13 -35 2z"/>
<path d="M2748 5633 c7 -3 16 -2 19 1 4 3 -2 6 -13 5 -11 0 -14 -3 -6 -6z"/>
<path d="M2894 5628 c-5 -8 -2 -9 9 -5 10 3 17 2 17 -3 0 -5 12 -13 26 -16 47
-12 111 -49 106 -63 -3 -10 0 -10 17 1 20 12 18 15 -41 42 -35 16 -75 35 -90
42 -32 17 -35 17 -44 2z"/>
<path d="M1911 5614 c0 -11 3 -14 6 -6 3 7 2 16 -1 19 -3 4 -6 -2 -5 -13z"/>
<path d="M2040 5622 c0 -8 -106 -42 -133 -42 -9 0 -17 -5 -17 -10 0 -6 -10
-15 -22 -20 -13 -5 -17 -9 -10 -9 8 -1 26 6 40 14 15 8 62 24 104 36 42 13 75
26 72 31 -7 10 -34 11 -34 0z"/>
<path d="M2870 5606 c0 -2 9 -6 20 -9 11 -3 20 -1 20 4 0 5 -9 9 -20 9 -11 0
-20 -2 -20 -4z"/>
<path d="M2845 5590 c-3 -5 1 -10 10 -10 9 0 13 5 10 10 -3 6 -8 10 -10 10 -2
0 -7 -4 -10 -10z"/>
<path d="M2880 5576 c0 -2 9 -6 20 -9 11 -3 20 -1 20 4 0 5 -9 9 -20 9 -11 0
-20 -2 -20 -4z"/>
<path d="M2940 5560 c0 -5 5 -10 11 -10 5 0 7 5 4 10 -3 6 -8 10 -11 10 -2 0
-4 -4 -4 -10z"/>
<path d="M2990 5549 c0 -5 5 -7 10 -4 6 3 10 8 10 11 0 2 -4 4 -10 4 -5 0 -10
-5 -10 -11z"/>
<path d="M3095 5540 c-3 -6 -4 -10 0 -10 3 0 1 -9 -5 -20 -9 -16 -6 -22 20
-35 17 -9 30 -11 30 -5 0 5 -6 10 -14 10 -7 0 -16 9 -19 20 -4 15 0 20 15 20
10 0 17 -4 14 -9 -4 -5 4 -7 16 -3 21 5 22 4 8 -13 -14 -17 -13 -18 3 -12 20
8 49 -2 42 -14 -3 -4 -13 -5 -23 -2 -9 3 -14 3 -11 -1 13 -14 47 -15 45 -1 -4
28 -110 93 -121 75z"/>
<path d="M2867 5503 l-15 -38 37 -14 c20 -8 56 -25 81 -38 25 -13 38 -18 30
-10 -16 15 -83 52 -112 61 -10 3 -18 10 -18 15 0 6 8 8 18 5 10 -4 13 -2 7 3
-13 10 -13 33 0 32 6 -1 9 -4 8 -7 -3 -13 26 -32 32 -22 3 6 2 10 -4 10 -6 0
-7 7 -4 17 4 10 2 14 -5 9 -6 -3 -13 -2 -17 4 -11 18 -23 10 -38 -27z"/>
<path d="M3060 5520 c-8 -5 -12 -12 -9 -15 4 -3 12 1 19 10 14 17 11 19 -10 5z"/>
<path d="M3018 5463 c6 -2 18 -2 25 0 6 3 1 5 -13 5 -14 0 -19 -2 -12 -5z"/>
<path d="M3238 5453 c6 -11 25 -26 42 -33 28 -12 45 -38 17 -27 -8 3 -14 -1
-14 -8 0 -11 5 -11 20 -3 14 7 22 7 28 -3 4 -7 6 -16 3 -20 -2 -4 4 -13 14
-20 15 -13 16 -12 3 4 -17 22 2 23 24 1 12 -12 13 -19 5 -24 -9 -5 -9 -9 -1
-14 6 -4 11 -2 11 3 0 18 20 12 27 -6 9 -25 39 -53 48 -45 4 4 4 -4 1 -18 -5
-16 -4 -20 2 -12 7 11 12 11 25 -3 36 -35 87 -103 87 -114 0 -7 5 -9 10 -6 6
3 10 -3 10 -14 0 -12 7 -21 16 -21 21 0 -7 40 -112 161 -52 58 -201 194 -249
225 -28 18 -28 18 -17 -3z"/>
<path d="M3113 5415 c0 -8 4 -12 9 -9 5 3 6 10 3 15 -9 13 -12 11 -12 -6z"/>
<path d="M3032 5398 c-7 -10 4 -21 42 -44 45 -26 54 -28 66 -16 11 12 10 13
-9 7 -14 -4 -23 -2 -27 9 -3 8 -19 18 -35 21 -30 7 -38 20 -16 28 7 4 8 6 1 6
-6 1 -16 -5 -22 -11z"/>
<path d="M3140 5400 c0 -5 5 -10 11 -10 5 0 7 5 4 10 -3 6 -8 10 -11 10 -2 0
-4 -4 -4 -10z"/>
<path d="M3170 5370 c0 -5 5 -10 11 -10 5 0 7 5 4 10 -3 6 -8 10 -11 10 -2 0
-4 -4 -4 -10z"/>
<path d="M3245 5331 c17 -12 34 -21 40 -21 17 0 -19 28 -45 35 -23 6 -23 5 5
-14z"/>
<path d="M2333 5333 c26 -3 37 -9 38 -21 0 -14 2 -13 10 3 6 14 8 -1 5 -47 -4
-49 -2 -68 7 -68 9 0 11 20 9 70 l-4 70 -51 -2 c-44 -1 -46 -2 -14 -5z"/>
<path d="M1445 5321 c3 -6 -3 -14 -12 -20 -16 -9 -16 -12 -3 -21 13 -8 13 -10
-2 -10 -10 0 -18 -5 -18 -11 0 -16 -44 -49 -50 -38 -4 5 -16 2 -28 -6 -20 -14
-20 -17 -5 -34 14 -18 19 -15 87 53 60 60 69 73 56 83 -18 15 -34 17 -25 4z
m15 -26 c-7 -9 -15 -13 -17 -11 -7 7 7 26 19 26 6 0 6 -6 -2 -15z m-100 -95
c0 -5 -7 -10 -15 -10 -8 0 -15 5 -15 10 0 6 7 10 15 10 8 0 15 -4 15 -10z"/>
<path d="M2211 5326 c2 -2 29 -6 59 -9 36 -4 48 -3 35 3 -19 8 -103 14 -94 6z"/>
<path d="M2065 5286 c-94 -34 -175 -75 -175 -89 0 -11 44 3 48 14 2 5 9 6 14
3 7 -4 8 -2 4 4 -10 16 35 32 87 31 34 -1 37 -2 17 -8 -24 -7 -24 -7 -3 -13
13 -3 24 -1 27 7 6 17 -2 25 -28 25 -12 1 0 9 28 20 27 11 61 17 75 15 22 -5
23 -4 6 4 -18 8 -17 9 10 13 25 4 26 5 5 6 -14 1 -65 -14 -115 -32z"/>
<path d="M2330 5316 c0 -2 7 -6 15 -10 8 -3 15 -1 15 4 0 6 -7 10 -15 10 -8 0
-15 -2 -15 -4z"/>
<path d="M3140 5315 c0 -8 89 -63 94 -58 9 9 7 25 -2 19 -5 -3 -21 3 -36 13
-19 13 -24 20 -14 23 7 3 1 5 -14 5 -16 0 -28 0 -28 -2z"/>
<path d="M3250 5263 c0 -5 6 -15 13 -22 10 -12 8 -13 -8 -7 -11 4 -15 3 -10
-1 6 -5 22 -19 37 -32 25 -22 27 -22 25 -4 0 11 -8 20 -17 19 -8 -1 -14 6 -12
15 1 9 -5 22 -13 29 -8 7 -15 8 -15 3z"/>
<path d="M1370 5250 c0 -5 7 -7 15 -4 8 4 15 8 15 10 0 2 -7 4 -15 4 -8 0 -15
-4 -15 -10z"/>
<path d="M3405 5250 c3 -5 8 -10 11 -10 2 0 4 5 4 10 0 6 -5 10 -11 10 -5 0
-7 -4 -4 -10z"/>
<path d="M3340 5240 c-9 -6 -10 -10 -3 -10 6 0 15 5 18 10 8 12 4 12 -15 0z"/>
<path d="M3430 5234 c0 -13 18 -39 24 -34 2 3 -2 14 -10 24 -8 11 -14 16 -14
10z"/>
<path d="M2280 5220 l-45 -7 53 -1 c33 -1 51 2 47 8 -3 6 -7 9 -8 8 -1 0 -22
-4 -47 -8z"/>
<path d="M3360 5225 c0 -3 7 -14 16 -23 15 -14 16 -14 13 3 -4 17 -29 35 -29
20z"/>
<path d="M2113 5213 c9 -2 25 -2 35 0 9 3 1 5 -18 5 -19 0 -27 -2 -17 -5z"/>
<path d="M2350 5210 c0 -5 -15 -11 -32 -11 -19 -1 -25 -3 -15 -6 24 -6 67 5
67 17 0 6 -4 10 -10 10 -5 0 -10 -4 -10 -10z"/>
<path d="M3320 5200 c0 -5 5 -10 10 -10 6 0 10 5 10 10 0 6 -4 10 -10 10 -5 0
-10 -4 -10 -10z"/>
<path d="M1844 5184 c-18 -8 -41 -24 -52 -35 -12 -10 -24 -19 -27 -19 -6 0
-52 -38 -102 -86 -22 -21 -31 -37 -27 -48 3 -9 10 -13 15 -10 5 3 7 10 3 15
-3 6 6 22 20 36 17 17 26 21 27 12 0 -8 5 -2 11 14 5 15 13 27 18 27 5 0 16 7
25 16 9 9 28 17 43 17 15 0 21 2 15 4 -7 3 -13 9 -13 14 0 6 9 5 23 -1 21 -11
21 -10 3 4 -16 13 -17 16 -4 16 9 0 26 9 39 20 29 23 24 25 -17 4z"/>
<path d="M2125 5190 c4 -6 11 -8 16 -5 14 9 11 15 -7 15 -8 0 -12 -5 -9 -10z"/>
<path d="M2180 5190 c0 -9 -80 -31 -91 -25 -5 4 -9 2 -9 -3 0 -16 -32 -23 -47
-11 -7 7 -16 9 -19 6 -3 -3 3 -10 14 -16 15 -8 37 -5 93 14 41 13 89 26 107
28 50 8 48 14 -3 13 -25 0 -45 -2 -45 -6z"/>
<path d="M3460 5182 c0 -5 7 -15 15 -22 8 -7 15 -8 15 -2 0 5 -7 15 -15 22 -8
7 -15 8 -15 2z"/>
<path d="M3320 5172 c0 -15 66 -72 74 -65 4 5 6 1 5 -7 -4 -14 85 -141 103
-148 5 -2 6 -8 2 -13 -3 -5 3 -9 12 -9 15 0 15 3 -4 23 -12 13 -22 29 -22 35
0 7 -4 12 -9 12 -16 0 -45 54 -45 85 -1 24 -5 29 -26 30 -27 0 -70 32 -70 52
0 7 -4 13 -10 13 -5 0 -10 -4 -10 -8z m100 -82 c-13 -8 -13 -10 -1 -10 8 0 12
-3 8 -6 -3 -3 -11 -3 -17 1 -8 5 -8 11 1 21 6 8 14 12 18 9 3 -3 -1 -10 -9
-15z"/>
<path d="M2048 5163 c7 -3 16 -2 19 1 4 3 -2 6 -13 5 -11 0 -14 -3 -6 -6z"/>
<path d="M1306 5140 c-10 -11 -22 -18 -25 -15 -4 2 -7 -5 -8 -15 -1 -10 -9
-30 -19 -45 -13 -20 -19 -23 -30 -14 -8 6 -14 19 -14 27 0 13 3 12 16 -4 14
-18 15 -18 4 4 -9 18 -8 27 1 38 6 8 10 17 7 19 -5 5 -95 -133 -101 -156 -2
-8 -2 -11 0 -6 3 4 9 4 14 1 6 -4 6 -11 -1 -19 -8 -10 -8 -19 2 -34 14 -22 28
-28 28 -11 0 6 -4 10 -9 10 -6 0 -9 9 -8 20 2 23 17 27 17 4 0 -8 5 -12 10 -9
6 4 8 10 5 15 -3 4 -2 10 2 12 5 1 28 34 53 73 25 38 53 78 63 87 9 10 17 23
17 28 0 13 -1 12 -24 -10z m-86 -100 c9 -16 7 -24 -10 -42 -11 -12 -20 -25
-20 -30 0 -4 -7 -5 -15 -2 -8 4 -15 13 -15 21 0 8 5 11 11 8 6 -4 9 -1 8 6 -4
20 11 59 21 59 5 0 14 -9 20 -20z"/>
<path d="M2895 5149 c-4 -6 -5 -11 -4 -12 2 -1 18 -11 34 -22 17 -11 42 -27
58 -34 15 -8 27 -19 27 -24 0 -5 11 -6 25 -3 14 4 25 2 25 -4 0 -5 -4 -10 -10
-10 -5 0 -2 -9 7 -20 13 -14 19 -16 25 -7 6 9 10 9 20 -1 9 -9 9 -12 -2 -12
-8 0 0 -15 20 -35 20 -21 40 -33 49 -30 11 4 11 3 2 -9 -9 -10 -9 -16 -1 -21
6 -4 25 -25 41 -47 16 -23 29 -36 29 -30 0 7 5 12 11 12 6 0 8 -8 5 -18 -6
-17 71 -178 80 -169 3 2 -5 21 -17 41 -11 20 -18 36 -15 36 3 0 -6 20 -20 45
-29 53 -25 60 6 9 12 -19 25 -33 27 -30 3 3 -16 37 -43 76 -32 48 -50 66 -56
58 -8 -14 -8 -14 -12 20 -3 30 -109 132 -206 201 -74 52 -94 59 -105 40z m61
-24 c37 -32 24 -32 -24 0 -20 14 -30 25 -21 25 9 0 29 -11 45 -25z m60 -46
c19 -22 19 -22 -3 -8 -13 8 -23 17 -23 21 0 12 6 9 26 -13z m64 -49 c0 -5 -2
-10 -4 -10 -3 0 -8 5 -11 10 -3 6 -1 10 4 10 6 0 11 -4 11 -10z m56 -57 c-7
-7 -26 7 -26 19 0 6 6 6 15 -2 9 -7 13 -15 11 -17z m29 -31 c-8 -8 -25 10 -19
20 4 6 9 5 15 -3 4 -7 6 -15 4 -17z m35 -32 c0 -5 -2 -10 -4 -10 -3 0 -8 5
-11 10 -3 6 -1 10 4 10 6 0 11 -4 11 -10z"/>
<path d="M4095 5147 c-3 -6 -4 -167 -3 -357 l3 -345 74 -3 74 -3 -6 277 c-3
152 -4 274 -2 272 3 -2 45 -122 94 -266 49 -144 92 -266 96 -272 7 -11 135
-14 150 -2 6 4 50 127 98 275 49 147 91 267 94 267 3 0 3 -28 0 -62 -4 -35 -7
-157 -8 -273 l-1 -210 71 -3 71 -3 0 361 0 360 -109 0 -109 0 -87 -262 c-48
-145 -91 -267 -95 -271 -4 -4 -47 114 -96 262 l-89 271 -108 0 c-77 0 -109 -4
-112 -13z"/>
<path d="M5050 4800 l0 -361 78 3 77 3 3 358 2 357 -80 0 -80 0 0 -360z"/>
<path d="M5288 5153 c-2 -5 -3 -30 -3 -58 l1 -50 115 -5 114 -5 3 -297 2 -298
75 0 75 0 0 300 0 300 115 0 115 0 0 60 0 60 -304 0 c-168 0 -306 -3 -308 -7z"/>
<path d="M5980 4800 l0 -361 73 3 72 3 3 143 3 143 87 -3 87 -3 36 -60 c19
-33 53 -91 74 -130 20 -38 42 -76 47 -82 8 -9 52 -12 167 -10 l156 2 31 78
c18 43 36 83 42 89 6 6 68 8 158 6 l148 -3 35 -87 34 -88 79 0 c43 0 78 3 78
8 0 4 -23 61 -51 127 -28 66 -63 152 -79 190 -16 39 -60 142 -98 230 l-69 160
-80 3 -79 3 -58 -138 c-168 -400 -239 -563 -246 -563 -9 0 -170 264 -170 279
0 5 11 12 25 15 45 11 92 70 106 132 24 106 -13 203 -94 247 -39 21 -57 22
-279 25 l-238 4 0 -362z m418 224 c25 -7 52 -51 52 -83 0 -40 -22 -71 -59 -81
-20 -5 -87 -10 -148 -10 l-113 0 0 90 0 90 123 0 c67 0 132 -3 145 -6z m667
-151 c27 -68 46 -125 43 -128 -3 -3 -51 -4 -106 -3 l-100 3 50 133 c28 73 54
130 58 125 4 -4 29 -63 55 -130z"/>
<path d="M1886 5141 c-4 -5 3 -7 14 -4 23 6 26 13 6 13 -8 0 -17 -4 -20 -9z"/>
<path d="M1995 5130 c3 -5 -5 -15 -19 -22 -22 -9 -30 -8 -48 8 -23 19 -23 19
-7 -1 9 -11 14 -25 12 -32 -2 -6 18 1 46 15 31 17 45 29 38 34 -17 11 -29 10
-22 -2z"/>
<path d="M1246 5105 c-9 -26 -7 -32 5 -12 6 10 9 21 6 23 -2 3 -7 -2 -11 -11z"/>
<path d="M3540 5090 c0 -5 5 -10 11 -10 5 0 7 5 4 10 -3 6 -8 10 -11 10 -2 0
-4 -4 -4 -10z"/>
<path d="M1890 5061 c0 -5 -8 -11 -17 -15 -27 -8 -56 -29 -71 -49 -9 -11 -21
-16 -30 -12 -9 3 -13 3 -9 -1 4 -4 2 -13 -4 -21 -13 -15 -33 -18 -24 -3 3 6 2
10 -4 10 -15 0 -23 -18 -11 -25 6 -4 7 -11 4 -17 -4 -6 -10 -5 -16 3 -8 11 -9
10 -4 -3 3 -10 -2 -22 -12 -27 -9 -6 -14 -11 -10 -11 4 0 -4 -11 -17 -25 -14
-13 -25 -29 -25 -35 0 -5 -9 -10 -20 -10 -13 0 -18 -5 -13 -16 4 -10 -1 -17
-16 -21 -11 -3 -21 -10 -21 -15 0 -6 7 -8 15 -4 8 3 15 1 15 -4 0 -6 -4 -10
-9 -10 -5 0 -14 -13 -21 -30 -7 -16 -16 -27 -21 -24 -5 3 -6 -2 -3 -10 3 -8 1
-23 -5 -33 -10 -17 -10 -17 -11 0 0 9 -5 17 -10 17 -7 0 -7 -7 1 -21 10 -20 9
-21 -17 -15 l-29 6 23 -19 c13 -12 18 -22 12 -26 -5 -3 -10 -18 -10 -33 0 -15
-5 -34 -11 -42 -9 -13 -12 -13 -22 3 -7 10 -26 35 -44 55 -29 32 -31 38 -18
52 8 9 15 24 15 32 0 9 3 24 6 33 6 13 9 14 16 3 8 -10 9 -9 5 4 -6 18 13 78
24 78 15 0 40 33 35 46 -3 8 -1 14 4 14 6 0 10 6 10 14 0 8 7 16 15 20 8 3 15
12 15 19 0 8 9 22 20 32 11 10 20 15 20 10 0 -4 -8 -14 -17 -21 -15 -10 -16
-15 -5 -25 10 -11 14 -11 25 0 10 10 8 11 -8 5 -19 -7 -19 -7 -2 13 10 11 15
27 11 37 -6 15 5 21 29 17 4 0 7 9 7 21 0 20 -3 19 -36 -13 -48 -45 -107 -136
-99 -149 4 -6 -1 -14 -12 -16 -18 -5 -74 -105 -73 -132 0 -7 -7 -24 -16 -37
-16 -24 -15 -26 37 -90 29 -36 55 -65 59 -65 3 0 14 32 24 71 10 39 36 102 57
140 21 37 39 73 39 79 0 5 5 10 12 10 6 0 9 3 5 6 -3 4 -1 12 6 19 7 7 23 27
37 44 42 53 116 121 187 172 37 27 60 49 50 49 -9 0 -17 -4 -17 -9z"/>
<path d="M1822 5046 c-29 -17 -38 -26 -25 -26 6 0 21 9 34 20 27 22 24 24 -9
6z"/>
<path d="M3616 5048 c3 -5 10 -6 15 -3 13 9 11 12 -6 12 -8 0 -12 -4 -9 -9z"/>
<path d="M3644 5028 c3 -7 9 -21 12 -30 4 -10 11 -18 16 -18 5 0 7 -4 3 -9 -3
-5 6 -22 20 -37 20 -22 24 -35 21 -63 -3 -20 -3 -28 0 -18 10 34 35 -15 28
-53 -5 -22 -9 -28 -15 -18 -11 17 -10 -1 1 -27 8 -19 9 -19 9 -1 1 16 3 17 18
5 15 -13 15 -12 5 8 -17 31 -15 52 2 27 8 -11 16 -33 19 -50 2 -16 7 -37 12
-48 4 -10 16 -48 26 -85 10 -36 18 -54 18 -40 1 14 -7 52 -18 85 -10 32 -22
72 -25 88 -10 41 -138 296 -149 296 -5 0 -6 -6 -3 -12z"/>
<path d="M3510 5020 c0 -5 5 -10 11 -10 5 0 7 5 4 10 -3 6 -8 10 -11 10 -2 0
-4 -4 -4 -10z"/>
<path d="M3620 5021 c0 -6 4 -13 10 -16 6 -3 7 1 4 9 -7 18 -14 21 -14 7z"/>
<path d="M1670 5010 c0 -5 7 -7 15 -4 8 4 15 8 15 10 0 2 -7 4 -15 4 -8 0 -15
-4 -15 -10z"/>
<path d="M1767 5009 c7 -7 15 -10 18 -7 3 3 -2 9 -12 12 -14 6 -15 5 -6 -5z"/>
<path d="M3600 5004 c0 -5 7 -18 15 -28 8 -11 15 -16 15 -10 0 5 -7 18 -15 28
-8 11 -15 16 -15 10z"/>
<path d="M2361 4986 c3 -4 30 -9 60 -12 30 -3 71 -7 91 -9 47 -5 178 -44 178
-53 0 -9 49 -32 67 -32 7 0 13 -4 13 -9 0 -5 10 -13 22 -17 25 -8 35 -15 93
-71 24 -22 46 -39 49 -36 15 15 -143 140 -184 146 -12 2 -25 9 -29 15 -14 22
-185 70 -276 77 -49 4 -87 4 -84 1z"/>
<path d="M2275 4970 c-27 -4 -70 -17 -95 -29 -34 -16 -38 -20 -15 -15 17 4 41
7 55 8 14 0 24 6 23 14 -2 8 10 12 35 13 20 0 46 4 57 9 24 10 8 10 -60 0z"/>
<path d="M3553 4953 c-3 -10 -8 -22 -11 -27 -3 -5 1 -6 8 -1 10 6 12 3 8 -13
-4 -12 -2 -22 2 -22 14 0 18 24 8 43 -15 30 1 34 24 7 l20 -25 -14 24 c-19 32
-36 37 -45 14z"/>
<path d="M2288 4943 c6 -2 18 -2 25 0 6 3 1 5 -13 5 -14 0 -19 -2 -12 -5z"/>
<path d="M2278 4923 c7 -3 16 -2 19 1 4 3 -2 6 -13 5 -11 0 -14 -3 -6 -6z"/>
<path d="M2032 4874 c-40 -26 -71 -48 -69 -50 2 -2 42 18 88 46 46 27 77 50
69 50 -8 0 -48 -21 -88 -46z"/>
<path d="M3660 4914 c0 -6 7 -19 16 -30 14 -18 14 -18 3 6 -14 31 -19 36 -19
24z"/>
<path d="M3531 4886 c8 -17 17 -22 28 -18 14 6 14 7 -1 10 -10 2 -18 10 -18
18 0 8 -4 14 -10 14 -6 0 -5 -9 1 -24z"/>
<path d="M3690 4900 c0 -5 5 -10 11 -10 5 0 7 5 4 10 -3 6 -8 10 -11 10 -2 0
-4 -4 -4 -10z"/>
<path d="M3570 4809 c12 -23 23 -39 25 -37 7 6 -28 78 -37 78 -5 0 1 -18 12
-41z"/>
<path d="M3640 4830 c0 -5 5 -10 10 -10 6 0 10 5 10 10 0 6 -4 10 -10 10 -5 0
-10 -4 -10 -10z"/>
<path d="M3590 4830 c0 -3 9 -23 20 -45 11 -22 20 -33 20 -25 0 8 -9 29 -20
45 -11 17 -20 28 -20 25z"/>
<path d="M1533 4785 c-6 -14 -7 -25 -2 -25 11 0 22 25 17 39 -1 6 -8 -1 -15
-14z"/>
<path d="M1904 4771 c-54 -53 -73 -77 -111 -140 -38 -63 -87 -185 -81 -203 3
-7 13 10 23 37 34 95 39 105 48 92 4 -7 5 -1 2 13 -4 17 0 32 15 47 11 12 20
28 20 35 1 21 68 91 80 83 7 -4 10 -1 8 8 -2 8 8 24 22 35 14 11 22 23 19 26
-3 3 -23 -12 -45 -33z"/>
<path d="M3601 4756 c-1 -4 12 -47 28 -95 26 -79 38 -125 61 -246 l7 -40 2 34
c0 19 -3 48 -8 65 -21 67 -44 172 -44 199 0 21 -2 25 -9 15 -7 -9 -8 -6 -5 10
3 13 3 21 -1 18 -3 -4 -11 6 -18 21 -7 16 -13 24 -13 19z"/>
<path d="M2957 4715 c10 -13 21 -25 25 -25 4 0 4 -7 1 -17 -4 -10 -2 -14 5 -9
6 4 15 -7 22 -26 7 -18 24 -42 39 -53 14 -10 21 -13 15 -5 -6 8 -32 48 -58 88
-26 39 -52 72 -57 72 -6 0 -2 -11 8 -25z"/>
<path d="M3320 4732 c0 -7 13 -37 29 -67 16 -30 26 -57 21 -60 -4 -3 -11 5
-15 18 -3 12 -9 17 -11 10 -3 -6 1 -24 9 -40 13 -25 43 -158 53 -237 2 -16 7
-32 10 -35 9 -9 -7 121 -17 141 -6 12 -4 20 7 26 13 7 14 14 3 49 -9 28 -18
39 -27 35 -11 -4 -12 -1 -2 14 10 16 6 31 -24 89 -19 39 -35 64 -36 57z m77
-224 c-3 -8 -6 -5 -6 6 -1 11 2 17 5 13 3 -3 4 -12 1 -19z"/>
<path d="M3740 4710 c4 -8 12 -26 18 -40 10 -25 10 -25 10 6 -1 17 2 36 6 42
5 8 -1 11 -17 10 -19 -2 -23 -6 -17 -18z"/>
<path d="M3781 4674 c0 -11 3 -14 6 -6 3 7 2 16 -1 19 -3 4 -6 -2 -5 -13z"/>
<path d="M3672 4610 c0 -14 2 -19 5 -12 2 6 2 18 0 25 -3 6 -5 1 -5 -13z"/>
<path d="M3690 4620 c0 -5 5 -10 11 -10 5 0 7 5 4 10 -3 6 -8 10 -11 10 -2 0
-4 -4 -4 -10z"/>
<path d="M3711 4574 c0 -11 3 -14 6 -6 3 7 2 16 -1 19 -3 4 -6 -2 -5 -13z"/>
<path d="M3741 4558 c-1 -10 -6 -18 -12 -18 -5 0 -7 -5 -4 -10 4 -6 11 -8 16
-5 5 4 10 -9 10 -27 1 -21 3 -26 6 -12 2 12 0 37 -6 55 -5 19 -10 26 -10 17z"/>
<path d="M3071 4544 c0 -11 3 -14 6 -6 3 7 2 16 -1 19 -3 4 -6 -2 -5 -13z"/>
<path d="M3693 4525 c0 -22 2 -30 4 -17 2 12 2 30 0 40 -3 9 -5 -1 -4 -23z"/>
<path d="M3781 4534 c0 -11 3 -14 6 -6 3 7 2 16 -1 19 -3 4 -6 -2 -5 -13z"/>
<path d="M3843 4509 c3 -19 10 -52 15 -74 l10 -40 1 37 c0 20 -4 40 -10 44 -6
3 -8 17 -5 29 3 13 1 27 -5 31 -8 5 -10 -3 -6 -27z"/>
<path d="M3821 4504 c0 -11 3 -14 6 -6 3 7 2 16 -1 19 -3 4 -6 -2 -5 -13z"/>
<path d="M3791 4474 c0 -11 3 -14 6 -6 3 7 2 16 -1 19 -3 4 -6 -2 -5 -13z"/>
<path d="M3727 4467 c-11 -29 -9 -53 4 -40 6 6 9 21 7 34 -3 21 -4 22 -11 6z"/>
<path d="M3841 4434 c0 -11 3 -14 6 -6 3 7 2 16 -1 19 -3 4 -6 -2 -5 -13z"/>
<path d="M3743 4410 c2 -8 12 -16 23 -17 13 -2 15 -1 4 4 -8 3 -19 11 -23 17
-6 7 -7 6 -4 -4z"/>
<path d="M3705 4362 c-14 -10 -15 -42 -1 -42 6 0 13 11 14 25 2 27 2 28 -13
17z"/>
<path d="M981 4298 c-1 -22 3 -28 21 -28 19 0 20 2 6 13 -9 6 -18 19 -21 27
-3 8 -6 3 -6 -12z"/>
<path d="M1000 4245 c-5 -48 -4 -105 1 -105 11 0 16 73 8 100 -6 21 -8 22 -9
5z"/>
<path d="M943 4164 c3 -11 8 -46 12 -79 11 -103 17 -127 28 -116 7 7 7 15 -1
24 -7 8 -14 52 -17 98 -2 50 -9 85 -16 88 -7 2 -9 -4 -6 -15z"/>
<path d="M3860 4160 c-9 -6 -10 -10 -3 -10 6 0 15 5 18 10 8 12 4 12 -15 0z"/>
<path d="M1780 4156 c0 -2 8 -10 18 -17 15 -13 16 -12 3 4 -13 16 -21 21 -21
13z"/>
<path d="M3772 4140 c0 -14 2 -19 5 -12 2 6 2 18 0 25 -3 6 -5 1 -5 -13z"/>
<path d="M3831 4138 c-1 -16 4 -28 9 -28 12 0 12 8 0 35 -8 18 -9 17 -9 -7z"/>
<path d="M1073 4133 c-20 -4 -23 -10 -23 -55 0 -28 3 -48 7 -44 4 4 6 25 4 46
-2 30 1 40 12 40 9 0 22 3 31 6 13 5 16 -3 16 -52 0 -42 3 -55 10 -44 8 13 10
12 10 -4 0 -11 3 -17 6 -14 3 3 0 33 -7 67 -13 63 -15 64 -66 54z"/>
<path d="M3859 4113 c-1 -10 -3 -29 -5 -43 -2 -14 -6 -43 -9 -65 l-5 -40 13
40 c13 40 21 125 12 125 -3 0 -6 -8 -6 -17z"/>
<path d="M1096 4095 c4 -8 8 -15 10 -15 2 0 4 7 4 15 0 8 -4 15 -10 15 -5 0
-7 -7 -4 -15z"/>
<path d="M3712 4090 c0 -14 2 -19 5 -12 2 6 2 18 0 25 -3 6 -5 1 -5 -13z"/>
<path d="M1070 4091 c0 -6 4 -13 10 -16 6 -3 7 1 4 9 -7 18 -14 21 -14 7z"/>
<path d="M1855 4080 c3 -5 8 -10 11 -10 2 0 4 5 4 10 0 6 -5 10 -11 10 -5 0
-7 -4 -4 -10z"/>
<path d="M4120 3894 l0 -185 38 3 37 3 -4 134 c-2 89 0 132 7 128 5 -4 43 -65
83 -137 l74 -130 43 0 42 0 0 185 0 185 -42 0 -41 0 6 -125 c3 -69 3 -125 -1
-125 -4 0 -29 39 -56 88 -92 164 -90 162 -141 162 l-45 0 0 -186z"/>
<path d="M4800 4030 c0 -47 -2 -50 -25 -50 -20 0 -25 -5 -25 -25 0 -20 5 -25
24 -25 23 0 24 -3 28 -90 4 -106 12 -118 86 -127 l52 -6 0 31 c0 27 -4 31 -32
34 l-33 3 -3 78 -3 77 36 0 c28 0 35 4 35 20 0 43 16 16 48 -77 55 -162 56
-163 96 -163 l35 0 27 90 c15 50 30 87 34 83 3 -4 17 -42 29 -83 26 -82 32
-90 76 -90 30 0 31 1 73 128 23 70 42 131 42 135 0 4 -15 7 -33 7 -33 0 -33 0
-60 -90 -15 -49 -29 -90 -31 -90 -2 0 -16 41 -32 90 l-27 90 -38 0 -38 0 -30
-92 c-16 -52 -31 -86 -34 -78 -17 44 -47 145 -47 157 0 10 -20 13 -80 13 l-80
0 0 50 0 50 -35 0 -35 0 0 -50z"/>
<path d="M5986 4072 c-6 -10 -5 -332 1 -349 3 -7 18 -13 34 -13 29 0 29 0 29
60 0 33 4 60 9 60 4 0 31 -26 59 -58 46 -54 54 -59 91 -59 47 0 46 4 -21 75
-27 28 -48 56 -48 62 0 6 10 21 23 33 12 13 38 39 56 60 l35 37 -45 -1 c-41 0
-47 -4 -94 -60 -27 -32 -53 -59 -57 -59 -5 0 -8 50 -8 110 l0 110 -29 0 c-17
0 -32 -4 -35 -8z"/>
<path d="M6544 4069 c-48 -14 -67 -42 -68 -99 -1 -41 4 -54 26 -77 25 -25 35
-27 125 -31 100 -5 113 -10 113 -48 0 -30 -16 -34 -141 -34 l-109 0 0 -36 0
-36 129 3 c113 4 133 7 158 25 46 34 55 109 19 159 -12 17 -29 21 -121 25 -78
4 -108 9 -115 20 -13 21 -12 33 4 55 11 16 29 19 122 21 l109 3 3 30 3 31
-113 -1 c-62 0 -127 -5 -144 -10z"/>
<path d="M7180 3895 l0 -185 35 0 35 0 0 185 0 185 -35 0 -35 0 0 -185z"/>
<path d="M7649 4048 c-2 -59 -4 -63 -26 -66 -32 -5 -32 -49 -1 -54 19 -3 21
-9 23 -86 3 -102 17 -122 94 -130 l51 -5 0 32 c0 28 -3 31 -30 31 -37 0 -50
27 -50 106 l0 54 40 0 c36 0 40 3 40 25 0 23 -4 25 -40 25 l-40 0 0 50 c0 49
-1 50 -30 50 -27 0 -30 -3 -31 -32z"/>
<path d="M7832 4048 c3 -29 7 -33 36 -36 31 -3 32 -2 32 32 0 35 -1 36 -36 36
-34 0 -35 -1 -32 -32z"/>
<path d="M3792 4018 c-19 -45 -19 -49 -4 -32 15 16 38 84 29 84 -2 0 -13 -23
-25 -52z"/>
<path d="M1353 4034 c-3 -9 1 -37 10 -62 14 -38 16 -40 10 -12 -3 19 -6 47 -6
63 0 31 -5 35 -14 11z"/>
<path d="M1010 4033 c0 -4 5 -15 10 -23 8 -13 10 -13 10 2 0 9 -4 20 -10 23
-5 3 -10 3 -10 -2z"/>
<path d="M3731 4024 c0 -11 3 -14 6 -6 3 7 2 16 -1 19 -3 4 -6 -2 -5 -13z"/>
<path d="M1007 3979 c3 -10 9 -16 14 -13 13 8 11 21 -5 27 -10 4 -12 0 -9 -14z"/>
<path d="M1136 3992 c-9 -15 4 -63 21 -80 11 -11 13 -11 13 2 0 9 -4 16 -9 16
-5 0 -7 9 -4 19 6 24 -11 59 -21 43z"/>
<path d="M1392 3980 c0 -14 2 -19 5 -12 2 6 2 18 0 25 -3 6 -5 1 -5 -13z"/>
<path d="M3710 3991 c0 -6 4 -13 10 -16 6 -3 7 1 4 9 -7 18 -14 21 -14 7z"/>
<path d="M3743 3975 c-3 -9 -3 -18 -1 -21 3 -3 8 4 11 16 6 23 -1 27 -10 5z"/>
<path d="M6950 3976 c-81 -20 -119 -110 -81 -190 64 -130 264 -86 264 58 0
101 -78 157 -183 132z m90 -66 c27 -27 28 -100 0 -125 -48 -43 -110 -9 -110
62 0 50 26 83 65 83 14 0 34 -9 45 -20z"/>
<path d="M8063 3980 c-92 -14 -140 -115 -95 -199 48 -89 182 -95 241 -12 44
61 17 175 -47 199 -46 17 -56 18 -99 12z m76 -76 c44 -55 16 -134 -47 -136
-46 -1 -67 23 -67 78 0 36 5 50 24 65 33 27 66 24 90 -7z"/>
<path d="M3691 3964 c0 -11 3 -14 6 -6 3 7 2 16 -1 19 -3 4 -6 -2 -5 -13z"/>
<path d="M4554 3964 c-73 -36 -81 -176 -14 -226 17 -12 51 -20 108 -25 l82 -6
0 32 0 31 -68 0 c-67 0 -92 10 -92 37 0 10 21 13 80 13 79 0 80 0 80 25 0 25
-1 25 -81 25 -71 0 -80 2 -77 17 5 26 46 43 106 43 49 0 52 2 52 25 0 24 -2
25 -72 25 -45 0 -85 -6 -104 -16z"/>
<path d="M5482 3966 c-61 -34 -84 -145 -41 -200 56 -71 161 -76 222 -10 53 56
41 159 -22 201 -39 26 -120 31 -159 9z m118 -54 c29 -23 32 -93 5 -122 -22
-24 -72 -26 -97 -3 -21 19 -25 91 -5 115 24 31 66 35 97 10z"/>
<path d="M5742 3848 l3 -133 33 -3 32 -3 0 111 0 111 28 -3 c21 -2 28 -9 30
-30 3 -25 8 -28 38 -28 l34 0 -6 43 c-9 58 -24 67 -116 67 l-79 0 3 -132z"/>
<path d="M7310 3883 c0 -59 5 -108 13 -123 17 -34 76 -51 162 -48 l70 3 3 133
3 132 -36 0 -35 0 0 -105 0 -105 -43 0 c-24 0 -48 5 -55 12 -8 8 -12 46 -12
105 l0 93 -35 0 -35 0 0 -97z"/>
<path d="M7830 3845 l0 -135 35 0 35 0 1 90 c2 193 5 180 -36 180 l-35 0 0
-135z"/>
<path d="M8280 3846 l0 -137 33 3 32 3 3 103 3 103 47 -3 47 -3 5 -100 5 -100
33 -3 32 -3 0 109 c0 151 -3 155 -139 160 l-101 4 0 -136z"/>
<path d="M1434 3945 c-4 -8 -1 -22 6 -30 6 -8 9 -19 5 -24 -4 -7 0 -8 10 -5
14 6 14 8 -1 25 -9 10 -14 25 -11 34 4 8 4 15 1 15 -2 0 -7 -7 -10 -15z"/>
<path d="M3826 3938 c-3 -13 -6 -33 -6 -45 0 -22 -48 -88 -58 -79 -3 3 1 12 8
21 14 16 3 20 -19 6 -16 -10 -8 -27 21 -42 13 -7 18 -7 14 -1 -3 6 5 22 18 37
14 15 27 44 31 71 7 49 2 70 -9 32z"/>
<path d="M982 3930 c0 -14 2 -19 5 -12 2 6 2 18 0 25 -3 6 -5 1 -5 -13z"/>
<path d="M3710 3935 c-7 -8 -10 -18 -6 -22 3 -3 6 -1 6 5 0 7 5 12 11 12 6 0
8 -9 4 -20 -4 -11 -2 -20 4 -20 13 0 14 29 2 48 -6 10 -10 10 -21 -3z"/>
<path d="M1037 3913 c-3 -16 -1 -32 4 -37 5 -6 9 4 9 27 0 44 -6 48 -13 10z"/>
<path d="M1385 3918 c-5 -20 4 -48 39 -116 43 -88 92 -172 105 -182 4 -3 22
-25 41 -50 64 -81 161 -168 246 -220 21 -13 45 -30 53 -38 7 -7 20 -11 27 -8
8 3 14 1 14 -5 0 -5 21 -19 48 -29 26 -11 55 -25 65 -31 22 -12 22 -12 31 18
4 12 2 24 -4 28 -5 3 -10 -3 -10 -14 0 -18 -3 -19 -32 -9 -18 6 -41 17 -50 25
-9 8 -21 12 -27 9 -6 -4 -13 5 -17 19 -6 24 -7 24 -19 8 -13 -17 -14 -17 -20
0 -4 9 -13 17 -21 17 -8 0 -14 5 -14 10 0 6 -8 10 -17 10 -14 0 -15 2 -4 9 9
6 10 11 2 15 -6 4 -8 12 -5 18 4 7 2 8 -4 4 -6 -4 -9 -13 -5 -21 9 -25 -11
-17 -37 15 -14 17 -32 30 -42 30 -9 0 -20 9 -23 20 -3 11 -11 20 -16 20 -5 0
-9 8 -9 18 0 12 -3 14 -8 4 -6 -9 -18 -1 -45 28 -37 41 -53 74 -49 100 2 11
-1 10 -8 -3 -11 -17 -13 -16 -31 7 -11 14 -17 30 -14 36 3 5 -1 10 -9 10 -9 0
-16 6 -16 14 0 7 -6 19 -14 26 -8 6 -13 17 -10 24 3 8 -2 16 -10 19 -9 4 -13
13 -10 22 4 9 1 15 -9 15 -9 0 -19 18 -27 45 -7 25 -17 45 -23 45 -5 0 -4 6 3
14 8 11 9 20 2 33 -9 16 -11 15 -17 -9z"/>
<path d="M3028 3910 c-9 -17 -13 -30 -8 -30 11 0 32 38 28 50 -2 5 -11 -4 -20
-20z"/>
<path d="M1002 3910 c0 -14 2 -19 5 -12 2 6 2 18 0 25 -3 6 -5 1 -5 -13z"/>
<path d="M1477 3923 c-2 -4 4 -17 14 -27 22 -22 25 -10 5 17 -8 10 -16 15 -19
10z"/>
<path d="M3763 3893 c-10 -34 -10 -36 3 -19 12 17 20 56 11 56 -1 0 -7 -17
-14 -37z"/>
<path d="M3676 3905 c-3 -9 0 -15 9 -15 9 0 12 6 9 15 -4 8 -7 15 -9 15 -2 0
-5 -7 -9 -15z"/>
<path d="M3801 3894 c0 -11 3 -14 6 -6 3 7 2 16 -1 19 -3 4 -6 -2 -5 -13z"/>
<path d="M1171 3874 c0 -11 3 -14 6 -6 3 7 2 16 -1 19 -3 4 -6 -2 -5 -13z"/>
<path d="M1460 3865 c-7 -9 -8 -15 -2 -15 5 0 12 7 16 15 3 8 4 15 2 15 -2 0
-9 -7 -16 -15z"/>
<path d="M3710 3870 c0 -5 5 -10 10 -10 6 0 10 5 10 10 0 6 -4 10 -10 10 -5 0
-10 -4 -10 -10z"/>
<path d="M996 3859 c6 -8 17 -38 24 -67 6 -28 16 -54 20 -57 14 -9 22 57 11
85 -7 17 -10 20 -10 8 -1 -28 -19 -21 -23 9 -2 14 -10 29 -18 31 -12 4 -13 2
-4 -9z m54 -76 c0 -21 -3 -24 -9 -14 -5 8 -7 20 -4 28 8 21 13 15 13 -14z"/>
<path d="M1142 3850 c0 -14 2 -19 5 -12 2 6 2 18 0 25 -3 6 -5 1 -5 -13z"/>
<path d="M1530 3860 c-13 -8 -12 -10 3 -10 10 0 15 -4 12 -10 -3 -5 -2 -10 3
-10 5 0 12 -8 16 -17 3 -10 9 -24 12 -31 4 -8 0 -10 -12 -5 -12 4 -15 3 -10
-6 5 -7 14 -10 22 -7 8 3 19 -4 25 -17 6 -12 20 -32 31 -44 13 -13 18 -28 14
-41 -5 -15 -2 -20 10 -18 9 0 19 -5 22 -13 3 -9 0 -11 -8 -6 -8 5 -11 4 -6 -3
4 -6 14 -8 22 -5 14 5 15 3 4 -18 -12 -22 -12 -23 4 -10 9 8 20 11 23 7 4 -4
1 -12 -7 -17 -11 -8 -12 -12 -2 -16 6 -2 12 -11 12 -19 0 -9 5 -12 10 -9 8 5
7 11 -1 21 -6 8 -9 17 -6 20 9 10 34 -19 29 -34 -2 -7 2 -10 11 -7 7 3 20 -1
27 -10 7 -8 17 -15 23 -15 6 0 -23 33 -64 73 -73 72 -118 132 -175 234 -23 40
-33 50 -44 43z"/>
<path d="M2994 3851 c-10 -10 -35 -39 -54 -64 -19 -26 -38 -46 -42 -47 -4 0
-24 -16 -45 -35 -21 -19 -44 -33 -51 -30 -7 3 -10 0 -7 -6 4 -6 -2 -13 -14
-16 -12 -3 -21 -10 -21 -15 0 -6 -8 -7 -17 -4 -10 4 -14 4 -10 0 10 -11 -58
-43 -106 -51 -20 -3 -40 -10 -43 -14 -3 -5 -10 -7 -15 -4 -5 4 -9 1 -9 -4 0
-13 -7 -14 67 9 147 46 271 135 367 263 31 40 31 48 0 18z"/>
<path d="M1177 3822 c-6 -31 0 -43 12 -23 5 8 10 -2 15 -28 3 -23 11 -41 16
-41 5 0 6 -7 3 -17 -4 -11 -3 -14 6 -9 9 6 10 0 6 -21 -5 -19 -4 -24 3 -15 7
11 12 7 20 -15 13 -33 44 -85 56 -94 4 -4 0 -18 -9 -33 -10 -14 -13 -26 -7
-26 5 0 13 10 16 23 6 20 7 21 17 4 5 -9 7 -22 3 -29 -5 -8 -2 -9 9 -5 19 7
42 -26 31 -45 -4 -6 -3 -8 4 -4 12 7 44 -33 36 -46 -3 -4 2 -5 10 -2 11 4 16
0 16 -12 0 -16 2 -17 10 -4 9 13 10 13 10 -1 0 -8 11 -26 25 -39 13 -12 22
-27 18 -33 -3 -6 -2 -7 4 -4 5 3 20 -1 32 -10 18 -12 20 -17 10 -25 -11 -7
-11 -8 2 -6 25 5 128 -72 122 -91 -4 -12 -2 -13 4 -3 8 10 15 9 34 -7 13 -11
18 -20 11 -21 -7 0 -10 -5 -6 -11 4 -8 9 -7 14 2 6 9 12 10 22 2 7 -6 25 -13
41 -17 15 -3 27 -11 27 -16 0 -6 7 -10 16 -10 8 0 13 -4 10 -9 -7 -10 17 -21
46 -21 12 0 18 -5 15 -13 -3 -8 3 -14 15 -14 40 -3 9 24 -84 72 -53 28 -129
72 -168 99 -87 60 -226 196 -298 291 -55 74 -156 263 -167 314 -9 41 -22 47
-28 13z"/>
<path d="M1441 3824 c0 -11 3 -14 6 -6 3 7 2 16 -1 19 -3 4 -6 -2 -5 -13z"/>
<path d="M1116 3813 c-6 -14 -5 -15 5 -6 7 7 10 15 7 18 -3 3 -9 -2 -12 -12z"/>
<path d="M1072 3785 c0 -16 2 -22 5 -12 2 9 2 23 0 30 -3 6 -5 -1 -5 -18z"/>
<path d="M3717 3763 c-10 -27 -27 -67 -37 -90 -17 -37 -17 -43 -4 -54 14 -11
16 -10 13 6 -3 26 11 75 22 75 5 0 6 6 3 14 -3 8 2 26 11 40 9 14 15 32 13 41
-2 8 -11 -6 -21 -32z"/>
<path d="M1121 3785 c1 -19 18 -51 18 -35 0 8 -4 22 -9 30 -5 8 -9 11 -9 5z"/>
<path d="M3776 3774 c7 -3 -1 -29 -22 -72 -19 -37 -34 -72 -34 -79 0 -6 -12
-21 -26 -32 -16 -13 -26 -31 -26 -46 0 -14 -5 -22 -11 -18 -5 3 -7 2 -4 -3 3
-6 1 -16 -4 -24 -8 -13 -10 -13 -19 0 -6 9 -10 10 -10 3 0 -6 5 -15 10 -18 8
-5 7 -11 -1 -21 -9 -11 -15 -12 -28 -2 -13 10 -14 10 -3 -2 16 -19 15 -30 -4
-30 -9 0 -12 5 -8 12 5 7 3 8 -5 3 -9 -5 -10 -10 -2 -18 13 -13 14 -27 2 -27
-25 0 -19 41 14 95 19 33 35 55 35 49 1 -5 9 7 19 26 31 58 11 57 -23 -1 -17
-30 -43 -72 -58 -93 -18 -27 -24 -44 -19 -54 6 -10 4 -21 -5 -30 -10 -9 -11
-18 -5 -26 6 -7 5 -17 -3 -29 -17 -22 -30 -22 -22 -1 4 9 1 23 -5 30 -8 10 -8
14 -1 14 6 0 16 10 22 23 7 13 -4 6 -26 -18 -142 -153 -200 -208 -276 -261
-54 -37 -70 -54 -49 -54 5 0 12 7 15 16 5 13 9 14 21 4 8 -6 20 -10 27 -7 8 3
6 6 -5 6 -10 1 -16 5 -12 11 3 5 13 7 23 4 14 -5 15 -4 2 5 -12 8 -11 11 5 17
11 4 34 21 51 38 17 17 42 31 54 31 13 0 24 6 26 13 1 7 0 8 -3 2 -2 -5 -12
-10 -21 -10 -11 0 1 18 36 50 28 28 52 55 52 60 0 18 29 11 40 -9 11 -21 -2
-37 -20 -26 -6 4 -10 3 -9 -2 3 -19 -2 -33 -12 -33 -5 0 -7 4 -4 10 3 6 -1 7
-10 3 -13 -4 -14 -8 -4 -14 10 -6 4 -16 -21 -38 -19 -17 -30 -31 -23 -31 15 0
183 180 183 197 0 7 4 13 8 13 12 0 112 154 112 172 0 10 6 21 14 25 10 6 96
184 96 199 0 2 -8 4 -17 3 -10 0 -13 -3 -7 -5z m-212 -398 c-3 -9 -10 -13 -16
-10 -5 3 -4 12 3 20 15 18 22 13 13 -10z m-58 -47 c1 -27 0 -29 -14 -16 -8 9
-12 23 -9 31 10 26 22 18 23 -15z"/>
<path d="M1091 3754 c0 -11 3 -14 6 -6 3 7 2 16 -1 19 -3 4 -6 -2 -5 -13z"/>
<path d="M1177 3749 c4 -13 8 -18 11 -10 2 7 -1 18 -6 23 -8 8 -9 4 -5 -13z"/>
<path d="M3745 3761 c-3 -5 -1 -12 5 -16 5 -3 10 1 10 9 0 18 -6 21 -15 7z"/>
<path d="M1490 3745 c0 -5 5 -17 10 -25 5 -8 10 -10 10 -5 0 6 -5 17 -10 25
-5 8 -10 11 -10 5z"/>
<path d="M1054 3716 c-3 -8 -1 -23 5 -33 6 -10 11 -13 11 -6 0 6 9 10 20 8 12
-2 18 0 15 6 -4 5 -11 6 -17 3 -7 -4 -8 2 -3 17 7 24 7 24 -9 4 -13 -16 -15
-17 -10 -2 7 20 -4 23 -12 3z"/>
<path d="M1100 3721 c0 -5 5 -13 10 -16 6 -3 10 -2 10 4 0 5 -4 13 -10 16 -5
3 -10 2 -10 -4z"/>
<path d="M1162 3684 c9 -3 19 -13 22 -22 3 -12 4 -12 3 3 -1 12 -10 21 -22 22
-15 1 -15 0 -3 -3z"/>
<path d="M3710 3679 c0 -5 5 -7 10 -4 6 3 10 8 10 11 0 2 -4 4 -10 4 -5 0 -10
-5 -10 -11z"/>
<path d="M1075 3659 c-4 -6 -5 -12 -2 -15 2 -3 7 2 10 11 7 17 1 20 -8 4z"/>
<path d="M1127 3641 c3 -12 9 -18 14 -15 5 3 9 -4 9 -15 0 -11 4 -22 9 -26 5
-3 7 -21 4 -40 -4 -23 -2 -35 6 -35 6 0 11 -5 11 -12 0 -21 -18 5 -54 77 -20
39 -35 63 -36 54 0 -38 128 -241 206 -326 25 -26 57 -61 72 -78 61 -68 143
-130 172 -130 15 0 26 3 23 8 -2 4 2 7 9 7 7 0 4 8 -9 21 -21 21 -43 19 -43
-4 0 -7 4 -6 10 3 6 10 12 12 19 5 7 -7 5 -14 -7 -22 -15 -8 -24 -5 -49 18
-20 17 -27 30 -20 33 9 3 8 8 -3 15 -19 14 -33 14 -25 1 16 -26 -10 -4 -75 62
-49 49 -68 74 -60 82 5 5 10 15 10 20 0 6 -5 5 -12 -2 -17 -17 -33 -15 -19 2
10 12 8 13 -8 9 -18 -5 -21 -1 -21 26 0 17 5 31 10 31 6 0 10 5 10 10 0 18
-18 11 -25 -10 -3 -11 -11 -20 -17 -20 -5 0 -7 8 -4 17 4 10 4 14 0 10 -4 -4
-18 9 -31 28 -26 39 -30 53 -8 35 21 -18 19 -3 -5 27 -31 39 -25 62 7 27 21
-24 23 -25 10 -4 -9 14 -26 43 -36 66 -23 48 -53 78 -44 45z"/>
<path d="M3701 3634 c0 -11 3 -14 6 -6 3 7 2 16 -1 19 -3 4 -6 -2 -5 -13z"/>
<path d="M1247 3610 c3 -11 9 -17 15 -14 5 3 4 12 -3 20 -16 19 -18 18 -12 -6z"/>
<path d="M1210 3611 c0 -7 7 -19 15 -27 19 -20 19 -5 0 20 -9 11 -15 14 -15 7z"/>
<path d="M2400 3580 c48 -42 57 -45 80 -30 11 7 7 9 -15 7 -20 -1 -29 2 -27
11 1 8 -2 11 -9 6 -9 -5 -10 -2 -6 9 4 11 2 14 -7 11 -7 -3 -19 2 -26 11 -7 8
-18 15 -24 15 -6 0 9 -18 34 -40z"/>
<path d="M2515 3550 c-19 -8 -19 -9 2 -9 12 -1 25 4 28 9 7 12 -2 12 -30 0z"/>
<path d="M1690 3544 c0 -6 6 -16 12 -22 10 -10 10 -15 -2 -22 -8 -5 -10 -10
-4 -10 25 0 32 25 13 44 -11 11 -19 15 -19 10z"/>
<path d="M1830 3499 c0 -8 79 -63 105 -72 6 -2 1 -14 -9 -26 -11 -11 -16 -21
-11 -21 4 0 13 8 20 17 12 16 15 16 48 -2 20 -10 33 -24 29 -29 -3 -6 1 -5 10
1 8 7 18 10 21 6 4 -3 7 -1 7 6 0 8 -7 11 -15 7 -8 -3 -15 -1 -15 4 0 6 -3 9
-7 8 -9 -2 -60 28 -135 79 -27 17 -48 27 -48 22z"/>
<path d="M1800 3480 c0 -5 5 -10 10 -10 6 0 10 5 10 10 0 6 -4 10 -10 10 -5 0
-10 -4 -10 -10z"/>
<path d="M1760 3451 c0 -6 4 -13 10 -16 6 -3 7 1 4 9 -7 18 -14 21 -14 7z"/>
<path d="M1346 3437 c3 -10 9 -15 12 -12 3 3 0 11 -7 18 -10 9 -11 8 -5 -6z"/>
<path d="M1770 3409 c0 -5 5 -7 10 -4 6 3 10 8 10 11 0 2 -4 4 -10 4 -5 0 -10
-5 -10 -11z"/>
<path d="M1340 3401 c0 -6 4 -13 10 -16 6 -3 7 1 4 9 -7 18 -14 21 -14 7z"/>
<path d="M1370 3372 c0 -5 9 -17 20 -27 19 -18 20 -17 20 2 0 12 -7 24 -16 27
-21 8 -24 8 -24 -2z"/>
<path d="M1970 3376 c0 -2 7 -7 16 -10 8 -3 12 -2 9 4 -6 10 -25 14 -25 6z"/>
<path d="M2070 3365 c10 -12 10 -15 -2 -15 -11 0 -13 -9 -10 -32 l5 -33 13 35
c17 46 17 47 -2 54 -14 5 -15 4 -4 -9z"/>
<path d="M1430 3345 c0 -5 5 -17 10 -25 8 -12 10 -12 10 -1 0 11 3 11 15 1 9
-7 18 -10 21 -7 3 3 -4 10 -15 17 -12 6 -21 7 -21 3 0 -4 -5 -1 -10 7 -5 8
-10 11 -10 5z"/>
<path d="M2041 3314 c0 -11 3 -14 6 -6 3 7 2 16 -1 19 -3 4 -6 -2 -5 -13z"/>
<path d="M1390 3280 c0 -5 5 -10 11 -10 5 0 7 5 4 10 -3 6 -8 10 -11 10 -2 0
-4 -4 -4 -10z"/>
<path d="M1487 3269 c7 -27 23 -34 23 -11 0 11 -6 22 -14 25 -10 4 -12 0 -9
-14z"/>
<path d="M1520 3246 c0 -2 12 -11 26 -21 17 -11 25 -12 22 -4 -4 11 -48 34
-48 25z"/>
<path d="M1426 3232 c-3 -5 1 -9 9 -9 8 0 12 4 9 9 -3 4 -7 8 -9 8 -2 0 -6 -4
-9 -8z"/>
<path d="M1485 3190 c3 -5 8 -10 11 -10 2 0 4 5 4 10 0 6 -5 10 -11 10 -5 0
-7 -4 -4 -10z"/>
<path d="M1587 3173 c3 -7 6 -13 8 -13 2 0 5 6 8 13 3 8 -1 14 -8 14 -7 0 -11
-6 -8 -14z"/>
<path d="M1501 3163 c-18 -20 -6 -29 14 -10 8 9 12 18 8 20 -5 3 -14 -2 -22
-10z"/>
<path d="M3343 3163 c9 -9 -12 -32 -26 -29 -7 1 -9 1 -4 -1 4 -3 7 -9 7 -14 0
-6 -4 -7 -10 -4 -5 3 -10 2 -10 -3 0 -13 -93 -72 -111 -71 -8 0 -4 4 9 10 13
5 20 13 17 19 -4 6 -12 5 -21 -5 -17 -16 -39 -21 -29 -6 9 15 -9 20 -22 6 -16
-17 49 -49 66 -32 6 6 11 7 11 3 0 -4 15 5 34 20 19 16 55 44 81 63 33 25 42
36 33 42 -16 10 -34 12 -25 2z"/>
<path d="M1650 3120 c0 -5 5 -10 11 -10 5 0 7 5 4 10 -3 6 -8 10 -11 10 -2 0
-4 -4 -4 -10z"/>
<path d="M1690 3105 c-10 -12 -10 -15 4 -15 9 0 16 7 16 15 0 8 -2 15 -4 15
-2 0 -9 -7 -16 -15z"/>
<path d="M1743 3103 c10 -9 56 -10 51 -1 -3 4 -17 8 -31 8 -15 0 -23 -3 -20
-7z"/>
<path d="M1774 3075 c11 -8 24 -15 30 -15 5 0 1 7 -10 15 -10 8 -23 14 -29 14
-5 0 -1 -6 9 -14z"/>
<path d="M1590 3041 c28 -20 84 -54 125 -75 61 -32 78 -37 88 -27 10 11 8 12
-10 6 -13 -3 -23 -2 -23 3 0 5 -12 15 -27 22 -16 8 -34 19 -42 24 -7 6 -20 11
-28 12 -8 1 -26 10 -41 20 -25 16 -25 18 -7 25 20 9 20 9 0 8 -35 -2 -46 1
-41 10 3 5 -6 9 -20 9 -22 0 -19 -5 26 -37z"/>
<path d="M1755 3055 c52 -32 70 -32 23 0 -20 14 -43 25 -50 25 -7 0 5 -11 27
-25z"/>
<path d="M1950 3050 c0 -5 5 -10 10 -10 6 0 10 -7 10 -16 0 -12 7 -14 29 -9
18 4 41 1 58 -8 15 -8 36 -12 46 -8 12 4 -1 11 -40 20 -32 7 -70 20 -85 27
-17 9 -28 10 -28 4z"/>
<path d="M1820 3016 c0 -2 7 -7 16 -10 8 -3 12 -2 9 4 -6 10 -25 14 -25 6z"/>
<path d="M1718 3003 c7 -3 16 -2 19 1 4 3 -2 6 -13 5 -11 0 -14 -3 -6 -6z"/>
<path d="M1900 2985 c14 -8 32 -14 40 -14 8 0 0 6 -19 14 -42 19 -54 19 -21 0z"/>
<path d="M2121 2991 c-10 -7 -6 -9 15 -9 55 2 75 -2 69 -12 -3 -5 1 -10 9 -10
9 0 16 -4 16 -10 0 -6 28 -10 65 -10 55 0 65 -3 66 -17 0 -15 2 -15 9 2 7 17
9 15 9 -12 1 -27 -2 -31 -16 -26 -10 4 -21 11 -25 17 -5 7 -8 7 -8 -1 0 -9
-16 -13 -45 -13 -25 0 -45 5 -45 11 0 5 -5 7 -11 3 -20 -12 13 -24 69 -24 35
0 52 -4 52 -12 0 -9 4 -8 10 2 7 11 10 5 11 -25 l1 -40 9 50 c4 28 11 65 14
83 l6 32 -43 -1 -43 -2 35 -7 c28 -6 22 -8 -36 -9 -74 -1 -90 4 -74 24 7 8 6
12 -3 12 -6 0 -32 3 -57 6 -25 4 -51 3 -59 -2z"/>
<path d="M1788 2983 c7 -3 16 -2 19 1 4 3 -2 6 -13 5 -11 0 -14 -3 -6 -6z"/>
<path d="M2057 2984 c-3 -3 -3 -13 0 -21 5 -13 1 -15 -20 -9 -16 4 -29 1 -33
-6 -5 -7 -2 -9 8 -5 9 3 19 2 24 -3 5 -5 21 2 36 15 22 19 24 24 12 29 -19 7
-19 7 -27 0z"/>
<path d="M1985 2970 c-16 -7 -17 -9 -3 -9 9 -1 20 4 23 9 7 11 7 11 -20 0z"/>
<path d="M2278 2973 c7 -3 16 -2 19 1 4 3 -2 6 -13 5 -11 0 -14 -3 -6 -6z"/>
<path d="M1863 2942 c0 -15 1 -19 4 -9 6 21 22 22 29 2 4 -8 10 -15 15 -15 18
0 8 16 -19 32 -28 16 -28 16 -29 -10z"/>
<path d="M2130 2966 c0 -2 7 -7 16 -10 8 -3 12 -2 9 4 -6 10 -25 14 -25 6z"/>
<path d="M1830 2950 c0 -5 5 -10 11 -10 5 0 7 5 4 10 -3 6 -8 10 -11 10 -2 0
-4 -4 -4 -10z"/>
<path d="M2077 2924 c3 -9 9 -12 12 -7 3 4 10 11 15 16 5 4 0 7 -12 7 -15 0
-20 -4 -15 -16z"/>
<path d="M1810 2920 c0 -5 5 -10 10 -10 6 0 10 5 10 10 0 6 -4 10 -10 10 -5 0
-10 -4 -10 -10z"/>
<path d="M2128 2923 c7 -3 16 -2 19 1 4 3 -2 6 -13 5 -11 0 -14 -3 -6 -6z"/>
<path d="M2308 2923 c6 -2 18 -2 25 0 6 3 1 5 -13 5 -14 0 -19 -2 -12 -5z"/>
<path d="M1930 2912 c0 -4 14 -16 30 -25 17 -10 30 -16 30 -14 0 2 -13 13 -30
25 -16 13 -30 19 -30 14z"/>
<path d="M1986 2906 c21 -15 30 -14 19 3 -3 6 -14 11 -23 11 -13 0 -13 -2 4
-14z"/>
<path d="M1875 2890 c22 -9 51 -20 65 -24 24 -7 24 -6 6 8 -11 9 -27 16 -35
16 -11 0 -12 3 -4 8 6 4 -7 8 -30 8 l-42 1 40 -17z"/>
<path d="M2180 2900 c8 -5 20 -10 25 -10 6 0 3 5 -5 10 -8 5 -19 10 -25 10 -5
0 -3 -5 5 -10z"/>
<path d="M2055 2887 c10 -8 27 -12 37 -9 24 6 21 8 -22 16 -31 6 -32 5 -15 -7z"/>
<path d="M1990 2863 l-25 -15 25 6 c14 3 36 6 50 7 23 0 23 1 5 9 -25 11 -25
11 -55 -7z"/>
<path d="M2133 2873 c9 -2 23 -2 30 0 6 3 -1 5 -18 5 -16 0 -22 -2 -12 -5z"/>
<path d="M2190 2870 c-9 -6 -10 -10 -3 -10 6 0 15 5 18 10 8 12 4 12 -15 0z"/>
<path d="M2238 2863 c7 -3 16 -2 19 1 4 3 -2 6 -13 5 -11 0 -14 -3 -6 -6z"/>
<path d="M2480 2860 c0 -5 6 -10 14 -10 8 0 18 5 21 10 3 6 -3 10 -14 10 -12
0 -21 -4 -21 -10z"/>
<path d="M2690 2859 c0 -5 5 -7 10 -4 6 3 10 8 10 11 0 2 -4 4 -10 4 -5 0 -10
-5 -10 -11z"/>
<path d="M2148 2843 c6 -2 18 -2 25 0 6 3 1 5 -13 5 -14 0 -19 -2 -12 -5z"/>
<path d="M2210 2846 c0 -2 7 -7 16 -10 8 -3 12 -2 9 4 -6 10 -25 14 -25 6z"/>
<path d="M2340 2839 c0 -5 5 -7 10 -4 6 3 10 8 10 11 0 2 -4 4 -10 4 -5 0 -10
-5 -10 -11z"/>
<path d="M2556 2841 c-3 -4 -18 -7 -33 -5 -24 4 -25 3 -8 -5 26 -13 58 -14 50
-2 -3 5 7 12 22 14 l28 4 -27 2 c-15 0 -29 -3 -32 -8z"/>
</g>
</svg>
