<?xml version="1.0" standalone="no"?>
<!DOCTYPE svg PUBLIC "-//W3C//DTD SVG 20010904//EN"
 "http://www.w3.org/TR/2001/REC-SVG-20010904/DTD/svg10.dtd">
<svg version="1.0" xmlns="http://www.w3.org/2000/svg"
 width="486.000000pt" height="486.000000pt" viewBox="0 0 486.000000 486.000000"
 preserveAspectRatio="xMidYMid meet">
<metadata>
Created by potrace 1.14, written by Peter Selinger 2001-2017
</metadata>
<g transform="translate(0.000000,486.000000) scale(0.100000,-0.100000)"
fill="#000000" stroke="none">
<path d="M2690 4366 c0 -6 17 -17 38 -24 20 -7 42 -14 47 -16 6 -2 20 -7 33
-11 12 -4 22 -11 22 -16 0 -5 5 -9 11 -9 16 0 89 -54 141 -104 66 -64 137
-192 153 -275 2 -13 6 -30 9 -39 25 -80 21 -366 -6 -415 -5 -10 -7 -21 -4 -24
6 -6 -26 -91 -62 -162 -25 -49 -141 -183 -148 -171 -2 3 -13 -3 -24 -12 -11
-10 -25 -18 -32 -18 -6 0 -26 -5 -44 -12 l-32 -11 23 -19 c13 -10 28 -18 34
-18 6 0 11 -3 11 -8 0 -4 15 -14 33 -21 29 -14 186 -161 171 -161 -4 0 0 -8 8
-17 15 -17 50 -80 47 -85 0 -2 5 -16 11 -33 14 -35 18 -55 25 -110 3 -22 7
-56 10 -75 2 -19 7 -64 10 -100 3 -36 8 -83 11 -105 2 -22 6 -62 9 -90 2 -27
7 -77 11 -110 4 -33 8 -70 8 -82 1 -13 4 -23 9 -23 4 0 7 -13 7 -30 0 -30 58
-172 72 -178 4 -2 8 -10 8 -17 0 -26 162 -195 188 -195 6 0 12 -4 12 -8 0 -5
18 -17 40 -27 22 -10 40 -23 40 -28 0 -6 3 -8 6 -5 3 4 22 0 42 -9 20 -8 45
-17 56 -19 12 -2 35 -7 51 -10 17 -4 75 -7 130 -8 55 0 103 -5 107 -11 5 -7 8
-7 8 0 0 6 26 10 58 11 95 1 159 13 166 31 4 9 4 18 2 21 -3 2 -54 6 -113 7
-111 2 -163 10 -163 26 0 5 -5 9 -10 9 -19 0 -57 45 -68 81 -10 32 -23 102
-27 142 -1 10 2 20 7 23 4 3 4 13 -1 23 -9 16 -13 74 -26 356 -5 105 -13 203
-18 235 -15 81 -79 211 -147 294 -46 57 -172 156 -224 176 -14 5 -26 14 -26
20 0 5 -3 9 -7 8 -5 -2 -28 6 -53 16 -25 11 -47 20 -50 21 -3 1 -25 7 -50 14
-25 6 -52 15 -60 18 -8 3 -26 8 -40 10 -14 2 -32 6 -40 10 -14 6 -30 9 -65 12
-9 1 -12 7 -8 16 3 9 8 14 11 11 2 -3 12 -1 22 4 9 5 28 11 41 14 66 13 266
98 280 119 3 5 8 7 10 6 9 -7 108 69 159 122 53 54 115 160 124 210 3 13 5 24
6 24 11 0 15 246 5 285 -3 14 -9 39 -12 55 -6 34 -63 158 -75 163 -4 2 -8 8
-8 13 0 24 -122 142 -171 165 -21 11 -39 22 -39 27 0 4 -7 7 -15 7 -8 0 -15 5
-15 11 0 5 -4 8 -9 4 -5 -3 -15 0 -23 7 -7 7 -22 15 -33 16 -11 2 -24 8 -30
12 -15 12 -216 60 -276 66 -117 11 -289 11 -289 0z"/>
<path d="M1535 4281 c-16 -42 -30 -78 -30 -81 -1 -3 -11 -25 -23 -49 -12 -25
-22 -51 -22 -58 0 -7 -5 -13 -11 -13 -5 0 -8 -4 -4 -9 3 -5 1 -12 -4 -15 -5
-3 -12 -22 -15 -41 -4 -19 -11 -35 -16 -35 -6 0 -9 -3 -8 -7 1 -5 -4 -24 -11
-43 -8 -19 -14 -37 -15 -40 -1 -3 -4 -10 -8 -16 -12 -18 -52 -129 -50 -136 1
-5 -2 -8 -7 -8 -5 0 -11 -10 -14 -22 -9 -39 -32 -95 -45 -110 -6 -8 -13 -23
-15 -34 -1 -10 -15 -45 -30 -78 -15 -32 -25 -62 -22 -66 3 -5 -1 -10 -7 -13
-16 -6 3 -30 26 -33 15 -2 50 79 38 90 -3 3 -1 6 5 6 6 0 14 10 18 23 10 30
12 36 15 42 1 3 3 8 4 13 1 4 9 18 18 30 l16 24 15 -34 c9 -18 30 -69 47 -113
18 -44 40 -98 50 -120 9 -22 21 -51 25 -65 4 -14 13 -38 20 -55 8 -16 32 -75
55 -130 22 -55 50 -119 60 -143 11 -24 18 -48 15 -53 -4 -5 -1 -9 4 -9 6 0 11
-5 11 -11 0 -6 6 -25 14 -42 8 -18 32 -79 55 -137 22 -58 46 -118 52 -135 7
-16 13 -32 14 -35 1 -3 5 -14 9 -25 4 -11 17 -45 29 -75 11 -30 25 -61 30 -67
5 -7 7 -13 3 -13 -4 0 1 -15 11 -32 9 -18 17 -37 18 -43 1 -10 8 -27 30 -80 7
-16 25 -61 39 -100 15 -38 33 -83 40 -100 29 -64 66 -164 66 -174 0 -6 4 -11
8 -11 5 0 9 -6 9 -13 0 -8 23 -73 52 -146 62 -156 68 -180 44 -177 -10 2 -21
-2 -25 -8 -5 -6 -8 -7 -8 -1 0 6 -42 9 -108 9 -140 -2 -132 -1 -128 -26 l3
-23 551 -2 c529 -1 552 -1 552 17 0 43 -6 45 -109 42 l-100 -3 -16 30 c-8 17
-15 33 -15 36 0 3 -7 21 -15 41 -8 20 -15 38 -15 40 0 2 -11 27 -24 56 -14 30
-34 78 -46 108 -12 30 -32 78 -46 108 -13 29 -24 57 -24 62 0 6 -4 18 -9 28
-5 9 -14 29 -20 45 -6 15 -15 37 -21 50 -5 12 -26 63 -46 112 -20 50 -40 95
-44 100 -5 6 -9 15 -10 20 -5 20 -12 41 -32 90 -11 28 -24 59 -28 70 -5 11
-16 38 -26 60 -10 22 -19 45 -20 50 -2 13 -71 181 -90 219 -8 16 -14 36 -14
46 0 9 -4 20 -9 25 -5 6 -35 75 -66 155 -31 80 -64 161 -72 180 -8 19 -18 44
-23 55 -4 11 -18 45 -30 75 -13 30 -28 69 -35 85 -71 178 -110 271 -115 275
-3 3 -7 14 -9 25 -1 11 -8 29 -14 40 -6 11 -11 23 -12 27 0 3 -3 10 -7 14 -5
4 -8 16 -8 26 0 10 -5 18 -11 18 -5 0 -7 5 -4 10 3 6 1 10 -5 10 -6 0 -9 4 -6
9 3 5 -3 28 -13 52 -30 72 -34 84 -32 93 1 5 -3 12 -9 16 -6 4 -13 13 -14 21
-3 15 -4 16 -52 131 -17 42 -29 79 -26 82 3 4 0 6 -7 6 -7 0 -9 5 -6 10 3 6 1
10 -4 10 -6 0 -10 3 -9 8 4 17 -14 50 -30 54 -14 4 -24 -11 -47 -71z"/>
<path d="M1747 4202 c-21 -4 -21 -22 -2 -69 19 -45 31 -53 70 -48 16 2 53 7
80 11 61 9 366 13 380 6 5 -3 30 -7 55 -8 43 -2 94 -9 150 -19 14 -3 36 -7 50
-9 23 -4 68 -15 130 -31 14 -3 36 -8 49 -11 13 -3 32 -9 41 -14 10 -5 20 -7
23 -4 3 3 15 0 27 -6 17 -9 21 -9 15 0 -4 7 4 5 17 -4 14 -9 28 -13 31 -9 4 3
7 1 7 -6 0 -7 4 -10 9 -6 5 3 12 1 16 -4 3 -6 12 -8 20 -4 8 3 15 0 15 -6 0
-6 11 -11 25 -11 14 0 25 -4 25 -8 0 -5 6 -9 13 -9 6 -1 27 -6 45 -11 19 -7
32 -7 32 -1 0 8 -15 13 -32 10 -5 0 -8 4 -8 9 0 6 -9 10 -20 10 -11 0 -20 5
-20 11 0 5 -4 8 -8 5 -5 -3 -21 1 -35 9 -15 8 -31 15 -35 16 -4 1 -18 5 -30
10 -13 5 -27 7 -32 4 -4 -3 -10 2 -14 10 -3 8 -16 15 -29 15 -13 0 -28 5 -35
12 -7 7 -12 9 -12 5 0 -4 -21 2 -47 12 -27 10 -66 22 -88 26 -22 4 -45 11 -51
16 -7 5 -16 9 -20 8 -5 -1 -12 0 -16 1 -17 6 -102 22 -115 22 -5 0 -16 4 -25
9 -10 5 -34 10 -53 11 -19 1 -35 4 -35 7 0 3 -10 6 -22 7 -13 0 -48 4 -78 8
-30 5 -72 9 -92 10 -21 0 -38 4 -38 7 0 3 -11 4 -25 1 -14 -2 -31 1 -39 7 -10
8 -16 9 -21 1 -3 -5 -16 -8 -28 -5 -25 7 -195 12 -220 7z"/>
<path d="M1380 4140 c-8 -6 -23 -10 -32 -10 -9 0 -29 -5 -45 -12 -15 -6 -35
-12 -43 -14 -8 -2 -16 -8 -18 -14 -2 -5 -7 -8 -12 -5 -4 3 -36 -11 -70 -30
-34 -19 -66 -35 -71 -35 -5 0 -9 -4 -9 -10 0 -5 -6 -10 -14 -10 -7 0 -19 -7
-26 -15 -7 -9 -15 -14 -17 -11 -2 2 -14 -6 -27 -18 -12 -11 -40 -37 -61 -57
-48 -43 -95 -99 -95 -113 0 -5 -3 -7 -6 -3 -8 8 -94 -155 -94 -177 0 -9 -5
-16 -12 -16 -6 0 -9 -3 -5 -6 3 -3 2 -16 -3 -28 -4 -13 -11 -38 -14 -57 -3
-19 -8 -45 -11 -59 -11 -48 -5 -237 9 -290 3 -14 8 -36 10 -50 3 -14 5 -25 6
-25 1 0 3 -8 6 -17 8 -35 10 -43 18 -68 27 -91 128 -310 167 -361 l17 -23 71
23 c39 12 83 24 98 26 16 2 28 4 28 5 0 1 14 3 30 5 17 2 46 6 65 9 19 2 43 5
53 5 19 1 24 31 5 31 -6 0 -8 3 -5 7 4 3 -4 21 -18 39 -14 18 -25 37 -25 43 0
6 -4 11 -10 11 -5 0 -9 3 -8 8 0 4 -13 36 -29 72 -17 36 -41 97 -53 135 -13
39 -25 77 -28 85 -9 27 -14 55 -15 92 -1 21 -5 38 -8 38 -9 0 -2 226 9 246 5
11 8 27 7 37 -2 9 1 17 6 17 5 0 8 3 8 8 -1 4 0 10 1 15 1 4 4 12 5 17 1 6 4
12 5 15 3 6 5 12 15 43 4 12 11 22 14 22 4 0 8 6 8 14 0 19 106 166 115 160 4
-3 10 7 14 21 3 14 11 25 17 25 6 0 7 3 4 7 -4 3 0 15 10 25 9 10 13 18 10 18
-4 0 3 19 15 42 13 24 24 51 25 62 2 11 8 24 13 31 30 36 30 94 0 75z"/>
<path d="M3980 3346 c0 -2 8 -10 18 -17 15 -13 16 -12 3 4 -13 16 -21 21 -21
13z"/>
<path d="M4027 3299 c7 -7 15 -10 18 -7 3 3 -2 9 -12 12 -14 6 -15 5 -6 -5z"/>
<path d="M4050 3276 c0 -2 8 -10 18 -17 15 -13 16 -12 3 4 -13 16 -21 21 -21
13z"/>
<path d="M4093 3235 c0 -8 4 -12 9 -9 5 3 6 10 3 15 -9 13 -12 11 -12 -6z"/>
<path d="M4131 3193 c13 -16 30 -34 38 -40 8 -7 12 -13 8 -13 -4 0 6 -12 22
-27 16 -16 40 -45 54 -66 17 -25 28 -34 33 -25 4 6 2 14 -4 16 -7 2 -12 8 -12
13 0 5 -13 23 -30 39 -16 16 -30 34 -30 40 0 6 -4 8 -10 5 -5 -3 -10 -2 -10 4
0 11 -66 81 -77 81 -3 0 4 -12 18 -27z"/>
<path d="M4294 3016 c-5 -13 -3 -21 4 -24 7 -2 12 -10 12 -17 0 -7 4 -15 8
-17 5 -1 34 -46 65 -98 31 -52 60 -100 64 -105 5 -6 9 -17 11 -25 2 -8 9 -18
15 -22 7 -4 9 -8 4 -8 -4 0 -1 -13 7 -29 9 -16 12 -31 9 -35 -4 -3 -1 -6 5 -6
7 0 11 -3 11 -7 -1 -5 0 -11 1 -15 1 -5 3 -11 4 -15 1 -5 9 -33 18 -63 9 -30
20 -68 24 -85 4 -16 9 -37 11 -45 5 -22 5 -220 0 -255 -14 -89 -48 -175 -105
-265 -39 -62 -160 -183 -207 -207 -16 -9 -32 -19 -35 -23 -3 -4 -35 -22 -72
-40 -38 -18 -68 -34 -68 -36 0 -1 28 -2 63 0 90 4 148 -32 134 -85 -3 -10 -1
-19 5 -21 19 -7 -57 -52 -88 -52 -18 -1 -30 -4 -28 -7 7 -12 -67 -16 -241 -14
-175 3 -241 9 -263 27 -7 6 -20 12 -30 13 -19 2 -39 9 -97 36 -23 10 -69 20
-103 21 -34 2 -62 5 -62 8 0 3 -24 6 -52 7 -55 1 -122 10 -200 27 -16 3 -40 8
-55 11 -16 3 -36 8 -45 11 -9 3 -26 7 -37 9 -12 2 -60 16 -108 30 -61 19 -89
23 -96 16 -8 -8 -8 -11 1 -11 6 0 9 -7 6 -15 -4 -8 -1 -15 6 -15 6 0 9 -4 6
-8 -11 -18 42 -32 129 -35 50 -1 95 -6 101 -9 9 -6 12 -100 5 -154 -1 -8 -52
-11 -171 -9 -107 1 -173 -2 -177 -8 -3 -6 -1 -7 5 -3 7 4 12 3 12 -3 0 -8 23
-16 75 -27 6 -1 30 -7 55 -14 25 -7 54 -14 65 -16 11 -1 35 -7 53 -13 18 -5
35 -10 37 -10 3 -1 6 -1 8 -2 1 0 11 -2 22 -4 121 -19 140 -23 140 -25 0 -1
23 -3 50 -5 28 -2 61 -7 75 -10 28 -7 398 -8 445 -1 17 2 50 7 75 10 102 14
204 40 290 73 8 4 17 7 20 7 31 6 190 83 200 96 3 4 16 13 29 20 34 18 43 25
124 106 83 83 97 99 97 114 0 5 4 10 8 10 10 0 64 106 87 170 18 48 22 66 35
145 8 52 6 231 -4 275 -3 14 -11 50 -18 80 -14 66 -15 69 -18 75 -1 3 -3 9 -4
14 0 5 -4 13 -8 17 -5 4 -8 18 -8 31 0 12 -4 23 -8 23 -5 0 -9 7 -9 16 0 14
-62 153 -73 164 -3 3 -14 23 -25 45 -11 22 -24 43 -30 47 -5 4 -6 8 -1 8 4 0
-4 16 -18 35 -15 19 -25 35 -22 35 4 0 -2 8 -11 18 -10 11 -27 32 -38 47 -11
16 -34 48 -51 70 -17 23 -34 48 -36 56 -4 11 -8 9 -14 -5z"/>
<path d="M1235 2619 c-2 -3 -19 -6 -37 -7 -18 -1 -44 -4 -58 -7 -14 -4 -29 -7
-35 -8 -5 -2 -16 -6 -23 -11 -7 -4 -16 -5 -19 -2 -3 3 -18 -1 -34 -10 -16 -8
-30 -14 -31 -14 -8 2 -83 -34 -136 -64 -117 -69 -245 -219 -320 -376 -37 -77
-85 -252 -95 -348 -2 -18 -7 -35 -10 -39 -4 -3 -7 -13 -7 -20 0 -68 -145 -243
-202 -243 -10 0 -18 -4 -18 -10 0 -5 -9 -10 -19 -10 -10 0 -21 -6 -24 -14 -4
-11 14 -13 96 -10 95 3 167 9 227 20 14 3 34 6 45 8 11 2 20 4 20 6 0 1 9 3
20 5 47 6 89 16 99 23 6 3 16 7 21 8 21 3 110 47 128 62 9 8 17 12 17 9 0 -18
127 109 136 135 3 10 10 18 15 18 6 0 7 5 4 10 -3 6 -2 10 3 10 5 0 17 19 28
43 10 23 21 44 24 47 9 9 41 76 43 91 2 8 5 19 9 24 14 23 33 111 43 205 14
129 43 222 91 293 31 45 107 127 119 127 4 0 20 9 36 21 16 11 34 17 40 13 7
-4 10 -1 7 7 -3 10 -29 13 -102 14 -54 0 -99 -2 -101 -6z"/>
<path d="M1353 2487 c-24 -23 -43 -48 -43 -55 0 -6 -4 -12 -8 -12 -4 0 -16
-13 -25 -30 -10 -16 -15 -30 -12 -30 4 0 -2 -12 -12 -27 -11 -16 -20 -41 -21
-58 -3 -38 16 -85 34 -85 8 0 14 -7 14 -15 0 -8 3 -15 8 -15 4 0 32 -25 62
-55 30 -30 61 -55 68 -55 7 0 11 -4 8 -9 -3 -4 6 -13 19 -19 14 -7 25 -16 25
-22 0 -6 5 -8 10 -5 6 3 10 2 10 -2 0 -5 30 -31 68 -58 37 -27 69 -52 72 -56
9 -11 303 -205 353 -232 41 -23 47 -24 47 -9 0 9 -11 40 -24 69 -13 28 -22 54
-18 57 3 3 0 6 -6 6 -7 0 -12 8 -12 18 0 10 -3 22 -7 26 -5 4 -8 11 -9 14 -1
10 -13 41 -30 80 -8 18 -28 68 -44 112 -28 70 -39 85 -106 147 -42 37 -80 70
-85 71 -5 2 -7 7 -4 12 3 5 -3 11 -13 15 -11 3 -38 24 -60 48 -23 23 -47 47
-54 53 -7 6 -29 30 -48 53 -61 72 -88 99 -94 93 -3 -3 -6 0 -6 6 0 20 -13 13
-57 -31z"/>
<path d="M3125 987 c-46 -11 -99 -47 -117 -80 -16 -29 -20 -333 -5 -382 10
-34 59 -87 87 -94 8 -2 26 -7 40 -11 25 -7 141 -5 170 3 55 15 112 58 112 84
0 4 4 13 8 18 5 6 8 92 7 190 l-2 180 -30 33 c-16 19 -45 40 -64 48 -43 18
-153 24 -206 11z m110 -97 c3 -10 6 -97 6 -195 1 -187 -3 -205 -43 -184 -17 9
-19 25 -18 192 1 100 6 187 11 193 13 16 38 13 44 -6z"/>
<path d="M3984 991 c-3 -3 -9 -6 -12 -6 -21 -1 -73 -43 -86 -68 -18 -39 -13
-127 10 -162 17 -26 121 -92 137 -87 4 1 10 -5 13 -13 4 -8 12 -15 19 -15 22
0 58 -39 61 -67 4 -35 -21 -75 -44 -71 -22 4 -30 23 -31 70 -1 20 -6 40 -12
44 -13 8 -159 12 -160 4 -5 -33 -4 -50 3 -50 5 0 6 -5 3 -10 -23 -37 37 -117
98 -133 34 -9 172 -12 197 -5 44 13 65 22 77 33 7 7 18 15 24 17 6 2 13 24 14
48 2 25 5 47 6 50 2 6 1 8 -6 50 -6 31 -42 90 -56 90 -4 0 -14 6 -21 13 -7 7
-32 21 -55 31 -24 11 -43 24 -43 29 0 6 -3 7 -6 4 -11 -10 -65 26 -60 40 3 7
2 13 -3 13 -11 0 -8 43 5 57 28 30 66 -9 58 -60 -2 -14 2 -18 17 -14 10 3 19
2 19 -2 0 -9 119 -5 128 4 6 6 6 59 0 85 -6 25 -43 57 -81 69 -38 13 -203 22
-213 12z"/>
<path d="M722 973 c-8 -16 -15 -56 -29 -162 -2 -19 -8 -42 -13 -51 -5 -10 -7
-19 -5 -22 3 -2 -4 -51 -15 -109 -37 -193 -37 -206 3 -200 4 0 7 -4 7 -10 0
-5 6 -7 12 -3 7 5 35 7 63 6 27 -1 56 2 63 7 9 5 17 47 17 91 0 1 16 3 35 6
29 4 36 2 38 -13 1 -10 4 -27 6 -38 2 -11 5 -27 5 -36 1 -13 14 -16 64 -17 34
0 67 -1 72 -2 29 -6 52 13 49 38 -1 15 -3 28 -4 30 -4 3 -6 13 -14 62 -10 60
-12 71 -19 100 -4 14 -9 39 -12 55 -17 99 -42 236 -44 238 -1 1 -4 12 -7 25
-6 21 -10 22 -135 22 -112 0 -129 -2 -137 -17z m153 -183 c21 -161 16 -192
-28 -168 -19 10 -20 42 -1 153 3 22 6 46 7 53 1 24 17 -4 22 -38z"/>
<path d="M1100 975 c-5 -6 -8 -14 -6 -16 3 -3 7 -16 10 -29 3 -14 17 -83 31
-155 15 -71 27 -140 28 -152 1 -13 3 -23 7 -23 3 0 6 -10 6 -22 1 -13 5 -39 8
-58 19 -104 7 -98 163 -96 l137 1 8 30 c5 17 11 46 14 65 6 48 10 75 30 190 3
19 8 46 10 60 3 14 9 48 14 75 5 28 12 71 15 96 l6 45 -95 2 c-108 2 -101 7
-111 -93 -3 -33 -8 -73 -10 -90 -5 -34 -17 -163 -18 -182 -1 -27 -14 -2 -15
29 -2 40 -9 74 -17 88 -3 6 -2 10 4 10 6 0 6 12 1 33 -8 31 -22 136 -23 167 0
8 -4 20 -8 26 -13 16 -175 15 -189 -1z"/>
<path d="M1620 706 l0 -282 160 1 c88 0 159 3 157 6 -1 3 4 13 11 22 7 8 9 18
4 21 -5 3 -7 17 -4 31 5 27 7 27 -83 27 l-50 1 -5 46 c-7 63 -2 84 21 78 11
-3 19 -1 19 4 0 4 7 6 15 3 8 -4 25 -4 38 0 20 5 23 11 22 53 -1 52 7 47 -87
52 -27 1 -28 3 -28 51 0 33 4 50 13 51 18 2 69 6 93 8 15 1 20 7 19 24 -1 12
1 29 5 37 5 9 3 23 -4 32 -10 14 -34 16 -164 16 l-152 0 0 -282z"/>
<path d="M2005 712 c1 -152 3 -280 4 -284 0 -3 42 -6 91 -5 l90 1 0 122 c0 69
4 125 10 129 5 3 19 1 30 -5 18 -10 20 -21 20 -125 0 -63 3 -116 8 -116 4 -1
41 -3 84 -4 89 -3 85 -9 82 130 -3 115 -8 129 -56 150 l-30 12 30 11 c36 12
51 37 56 90 4 48 -20 132 -38 132 -8 0 -16 4 -18 10 -1 5 -15 11 -30 12 -16 1
-28 5 -28 8 0 3 -69 7 -154 7 l-153 2 2 -277z m245 162 c0 -3 -6 -2 -12 2 -10
6 -10 4 0 -7 15 -16 16 -89 1 -89 -5 0 -7 -4 -4 -10 3 -6 -4 -10 -18 -10 -23
0 -25 3 -25 58 0 66 11 86 39 71 10 -5 19 -12 19 -15z"/>
<path d="M2505 978 c-3 -7 -4 -135 -3 -283 l3 -270 80 -1 c44 0 86 1 93 4 9 3
12 38 12 128 0 113 2 124 18 124 36 0 42 -20 42 -140 l0 -116 79 0 c44 1 82 4
86 8 13 13 9 202 -5 228 -12 24 -36 44 -52 45 -16 0 -12 18 4 21 28 4 48 30
56 76 16 82 -25 158 -91 173 -18 3 -96 9 -175 11 -112 4 -143 2 -147 -8z m237
-92 c3 3 5 -21 4 -53 -1 -50 -4 -59 -26 -70 -13 -6 -26 -10 -28 -9 -6 7 -4
125 3 136 4 7 12 7 24 0 10 -5 21 -7 23 -4z"/>
<path d="M3507 976 c-2 -6 -4 -132 -3 -281 l1 -270 118 0 c64 0 117 -4 117 -9
0 -5 6 -4 13 1 6 5 27 8 45 7 l32 -2 0 54 0 54 -32 1 c-18 0 -50 1 -70 1 l-38
0 0 64 c0 70 -5 66 76 66 l41 0 -1 51 -1 52 -45 1 c-25 1 -51 2 -58 3 -9 1
-12 16 -10 54 l3 52 40 2 c22 1 49 2 60 2 15 1 21 9 23 34 6 76 10 74 -157 74
-99 0 -151 -4 -154 -11z"/>
</g>
</svg>
